<?xml version="1.0" encoding="utf-8"?>
<!-- Generator: Adobe Illustrator 16.0.0, SVG Export Plug-In . SVG Version: 6.00 Build 0)  -->
<!DOCTYPE svg PUBLIC "-//W3C//DTD SVG 1.1//EN" "http://www.w3.org/Graphics/SVG/1.1/DTD/svg11.dtd">
<svg version="1.1" id="Layer_1" xmlns="http://www.w3.org/2000/svg" xmlns:xlink="http://www.w3.org/1999/xlink" x="0px" y="0px"
	 width="841.89px" height="1190.55px" viewBox="0 0 841.89 1190.55" enable-background="new 0 0 841.89 1190.55"
	 xml:space="preserve">
<g>
	<g>
		<polygon fill="#A52174" points="445.682,576.92 436.988,546.809 429.598,546.809 429.598,576.92 		"/>
		<g>
			<g>
				<polygon fill="#D04298" points="431.871,572.667 441.961,572.667 435.398,550.229 431.871,550.229 				"/>
			</g>
		</g>
	</g>
	<g>
		<polygon fill="#E6A2C8" points="424.383,561.942 413.791,561.942 420.791,553.934 424.383,553.934 		"/>
		<path fill="#F7D7E7" d="M432.709,570.807c0,1.566-1.268,2.836-2.834,2.836h-16.713c-1.565,0-2.834-1.27-2.834-2.836v-7.629
			c0-1.566,1.269-2.836,2.834-2.836h16.713c1.566,0,2.834,1.27,2.834,2.836V570.807z"/>
		<path fill="#E6A2C8" d="M416.623,570.807c0,1.566-1.27,2.836-2.835,2.836h-2.713c-1.565,0-2.835-1.27-2.835-2.836v-7.629
			c0-1.566,1.27-2.836,2.835-2.836h2.713c1.565,0,2.835,1.27,2.835,2.836V570.807z"/>
		<rect x="408.24" y="562.971" fill="#684EA0" width="8.383" height="5.104"/>
		<polygon fill="#BB1C85" points="417.691,563.01 417.691,567.844 420.34,568.86 429.242,568.86 431.893,567.844 431.893,563.01 		
			"/>
		<g>
			<polygon fill="#D28ABC" points="418.483,564.071 418.483,565.118 421.566,566.012 423.477,566.012 423.477,565.118 
				423.477,564.747 423.477,564.071 			"/>
			<polygon fill="#D28ABC" points="431.1,564.071 431.1,565.118 428.016,566.012 426.105,566.012 426.105,565.118 426.105,564.747 
				426.105,564.071 			"/>
		</g>
		<g>
			<g>
				<polygon fill="#BB1C85" points="424.131,569.426 421.93,569.75 421.93,570.436 424.131,570.112 				"/>
				<polygon fill="#BB1C85" points="424.131,570.399 421.93,570.725 421.93,571.411 424.131,571.084 				"/>
				<polygon fill="#BB1C85" points="424.131,571.374 421.93,571.698 421.93,572.383 424.131,572.059 				"/>
			</g>
			<g>
				<polygon fill="#BB1C85" points="425.453,569.426 427.652,569.75 427.652,570.436 425.453,570.112 				"/>
				<polygon fill="#BB1C85" points="425.453,570.399 427.652,570.725 427.652,571.411 425.453,571.084 				"/>
				<polygon fill="#BB1C85" points="425.453,571.374 427.652,571.698 427.652,572.383 425.453,572.059 				"/>
			</g>
		</g>
		<rect x="421.791" y="553.934" fill="#F7D7E7" width="3.592" height="8.008"/>
		<rect x="422.934" y="555.433" fill="#BB1C85" width="1.307" height="5.914"/>
	</g>
	
		<rect x="457.451" y="581.661" transform="matrix(0.9814 0.1918 -0.1918 0.9814 120.8209 -78.1369)" fill="#301223" width="13.292" height="6.958"/>
	<polygon fill="#301223" points="473.822,599.383 468.371,587.264 474.719,584.403 480.172,596.523 	"/>
	<g>
		<path fill="#F7D7E7" d="M452.037,589.374c-1.34-0.264-2.213-1.564-1.951-2.904l1.469-7.455c0.264-1.34,1.564-2.211,2.904-1.947
			l6.529,1.285c1.338,0.264,2.211,1.562,1.947,2.902l-1.467,7.457c-0.264,1.338-1.564,2.211-2.904,1.947L452.037,589.374z"/>
		<path fill="#E6A2C8" d="M453.398,582.454c-1.34-0.264-2.211-1.564-1.949-2.904l0.457-2.322c0.264-1.338,1.564-2.211,2.904-1.947
			l6.529,1.285c1.34,0.264,2.213,1.562,1.949,2.902l-0.457,2.322c-0.266,1.34-1.564,2.213-2.904,1.949L453.398,582.454z"/>
		
			<rect x="454.971" y="577.53" transform="matrix(-0.1932 0.9812 -0.9812 -0.1932 1116.0602 241.7697)" fill="#684EA0" width="7.31" height="4.451"/>
	</g>
	<g>
		<path fill="#6E1A55" d="M451.678,572.776h-4.607c-3.562,0-6.451,2.891-6.451,6.451c0,3.562,2.889,6.449,6.451,6.449h4.607
			c3.562,0,6.449-2.887,6.449-6.449C458.127,575.667,455.24,572.776,451.678,572.776z"/>
		<path fill="#8C2169" d="M456.576,575.075h-9.484v3.404h10.961C457.9,577.184,457.377,576.018,456.576,575.075z"/>
		<circle fill="#A52174" cx="447.069" cy="579.227" r="6.45"/>
		<circle fill="#301223" cx="447.07" cy="579.227" r="4.26"/>
		<circle fill="#D04298" cx="447.07" cy="579.227" r="3.396"/>
		<path fill="#B83D96" d="M447.605,575.885c-1.619,0.256-2.861,1.65-2.861,3.342c0,1.693,1.242,3.084,2.861,3.342
			c1.621-0.258,2.861-1.648,2.861-3.342C450.467,577.536,449.227,576.141,447.605,575.885z"/>
		<path fill="#1B201A" d="M448.371,578.395h-1.076c-0.484,0-0.877,0.389-0.877,0.875c0,0.484,0.393,0.875,0.877,0.875h1.076
			c0.484,0,0.877-0.391,0.877-0.875C449.248,578.784,448.855,578.395,448.371,578.395z"/>
		<circle fill="#535351" cx="447.295" cy="579.27" r="0.445"/>
	</g>
	<g>
		<path fill="#6E1A55" d="M472.533,581.979h-1.398c-1.992,0-3.607,1.615-3.607,3.607s1.615,3.607,3.607,3.607h1.398
			c1.992,0,3.607-1.615,3.607-3.607S474.525,581.979,472.533,581.979z"/>
		<circle fill="#B83D96" cx="471.135" cy="585.586" r="3.607"/>
	</g>
	<g>
		<g>
			<path fill="#6E1A55" d="M444.814,615.85h-4.484c-3.469,0-6.279,2.812-6.279,6.279s2.811,6.277,6.279,6.277h4.484
				c3.469,0,6.279-2.811,6.279-6.277S448.283,615.85,444.814,615.85z"/>
			<path fill="#8C2169" d="M449.584,618.086h-9.232v3.314h10.668C450.873,620.141,450.361,619.006,449.584,618.086z"/>
			<circle fill="#A52174" cx="440.329" cy="622.129" r="6.278"/>
			<circle fill="#301223" cx="440.33" cy="622.129" r="4.146"/>
			<path fill="#D04298" d="M443.635,622.129c0,1.824-1.479,3.305-3.305,3.305s-3.305-1.48-3.305-3.305
				c0-1.828,1.479-3.305,3.305-3.305S443.635,620.301,443.635,622.129z"/>
			<path fill="#B83D96" d="M440.85,618.875c-1.574,0.25-2.783,1.605-2.783,3.254c0,1.646,1.209,3.002,2.783,3.252
				c1.578-0.25,2.785-1.605,2.785-3.252C443.635,620.48,442.428,619.125,440.85,618.875z"/>
			<path fill="#1B201A" d="M441.596,621.318h-1.049c-0.471,0-0.852,0.379-0.852,0.852c0,0.471,0.381,0.854,0.852,0.854h1.049
				c0.471,0,0.854-0.383,0.854-0.854C442.449,621.697,442.066,621.318,441.596,621.318z"/>
			<path fill="#535351" d="M440.982,622.17c0,0.24-0.195,0.436-0.436,0.436c-0.238,0-0.432-0.195-0.432-0.436
				s0.193-0.432,0.432-0.432C440.787,621.738,440.982,621.93,440.982,622.17z"/>
		</g>
		<g>
			<path fill="#F7D7E7" d="M448.969,614.229c0.33,1.531-0.641,3.039-2.17,3.371l-8.516,1.848c-1.529,0.332-3.039-0.641-3.371-2.17
				l-1.617-7.457c-0.332-1.529,0.641-3.039,2.17-3.371l8.516-1.848c1.529-0.33,3.039,0.641,3.371,2.17L448.969,614.229z"/>
			<path fill="#E6A2C8" d="M441.064,615.943c0.332,1.529-0.641,3.039-2.17,3.371l-2.652,0.574c-1.529,0.332-3.039-0.639-3.369-2.17
				l-1.617-7.455c-0.332-1.531,0.639-3.041,2.168-3.373l2.652-0.574c1.529-0.332,3.039,0.641,3.371,2.17L441.064,615.943z"/>
			
				<rect x="431.657" y="609.116" transform="matrix(0.9773 -0.212 0.212 0.9773 -119.7635 106.3001)" fill="#684EA0" width="8.384" height="5.102"/>
		</g>
		<g>
			<path fill="#F7D7E7" d="M447.387,636.979c-0.32,1.533-1.824,2.516-3.355,2.193l-8.527-1.789
				c-1.533-0.322-2.514-1.824-2.191-3.357l1.566-7.467c0.32-1.531,1.824-2.514,3.355-2.191l8.527,1.789
				c1.533,0.32,2.514,1.824,2.193,3.355L447.387,636.979z"/>
			<path fill="#E6A2C8" d="M439.473,635.318c-0.322,1.533-1.824,2.514-3.355,2.193l-2.656-0.557
				c-1.533-0.322-2.514-1.826-2.191-3.357l1.566-7.467c0.32-1.533,1.824-2.514,3.355-2.193l2.656,0.557
				c1.531,0.322,2.514,1.826,2.191,3.357L439.473,635.318z"/>
		</g>
	</g>
	<g>
		<g>
			<path fill="#684EA0" d="M415.063,613.318l1.2,4.18c0.279,0.922,1.256,1.67,2.177,1.67h1.614c0.922,0,1.897-0.748,2.178-1.67
				l1.201-4.18c0.277-0.922-0.242-1.67-1.164-1.67h-6.044C415.304,611.648,414.782,612.396,415.063,613.318z"/>
			<path fill="#FDFEFF" d="M415.698,612.684l1.201,4.178c0.279,0.924,1.255,1.672,2.177,1.672h0.621
				c-0.456-0.307-0.833-0.748-0.987-1.26l-1.201-4.178c-0.28-0.924,0.242-1.67,1.163-1.67h5.174
				c-0.217-0.248-0.529-0.412-0.941-0.412h-6.043C415.94,611.014,415.417,611.76,415.698,612.684z"/>
			<path fill="#301223" d="M413.574,609.479c0-1.078,0.874-1.949,1.949-1.949h7.45c1.076,0,1.949,0.871,1.949,1.949v3.902
				c0,1.078-0.873,1.949-1.949,1.949h-7.45c-1.075,0-1.949-0.871-1.949-1.949V609.479z"/>
		</g>
	</g>
	<g>
		<rect x="400.766" y="597.475" fill="#A52174" width="36.333" height="13.334"/>
		<rect x="399.766" y="597.475" fill="#301223" width="12.667" height="13.334"/>
	</g>
	<g>
		<polygon fill="#A52174" points="401.801,576.92 393.108,546.809 385.716,546.809 385.716,576.92 		"/>
		<g>
			<g>
				<polygon fill="#D04298" points="387.99,572.667 398.081,572.667 391.518,550.229 387.99,550.229 				"/>
			</g>
		</g>
	</g>
	<g>
		<path fill="#F7D7E7" d="M449.549,586.93v-3.303c0-5.951-4.824-10.779-10.777-10.779h-32.245c-5.953,0-10.777,4.828-10.777,10.779
			v3.303c-2.027,1.754-3.335,4.314-3.335,7.203v6.925h60.47v-6.925C452.885,591.245,451.576,588.684,449.549,586.93z"/>
		<g>
			<g>
				<g>
					<path fill="#A52174" d="M437.832,574.989h-29.799c-5.282,0-9.565,4.283-9.565,9.566v9.549h48.931v-9.549
						C447.398,579.272,443.115,574.989,437.832,574.989z"/>
					<circle fill="#FFFBFD" cx="400.848" cy="591.725" r="2.38"/>
					<path fill="#EE1F42" d="M400.848,590.295c-0.789,0-1.429,0.639-1.429,1.43h2.856
						C402.276,590.934,401.638,590.295,400.848,590.295z"/>
				</g>
				<circle fill="#FFFBFD" cx="445.019" cy="591.725" r="2.38"/>
				<path fill="#EE1F42" d="M445.02,590.295c-0.791,0-1.43,0.639-1.43,1.43h2.855C446.445,590.934,445.809,590.295,445.02,590.295z"
					/>
			</g>
			<g>
				<circle fill="#FFFBFD" cx="406.987" cy="583.635" r="4.113"/>
				<circle fill="#FFFBFD" cx="438.878" cy="583.635" r="4.112"/>
			</g>
			<path fill="#301223" d="M430.613,581.032c0,1.17-0.947,2.119-2.117,2.119h-11.125c-1.171,0-2.118-0.949-2.118-2.119l0,0
				c0-1.166,0.947-2.115,2.118-2.115h11.125C429.666,578.917,430.613,579.866,430.613,581.032L430.613,581.032z"/>
			<path fill="#301223" d="M432.301,587.645c0,1.17-0.949,2.119-2.117,2.119h-14.5c-1.17,0-2.118-0.949-2.118-2.119l0,0
				c0-1.166,0.948-2.115,2.118-2.115h14.5C431.352,585.53,432.301,586.479,432.301,587.645L432.301,587.645z"/>
		</g>
	</g>
	<g>
		<g>
			<path fill="#6E1A55" d="M404.206,615.85h-4.485c-3.468,0-6.278,2.812-6.278,6.279s2.811,6.277,6.278,6.277h4.485
				c3.468,0,6.278-2.811,6.278-6.277S407.673,615.85,404.206,615.85z"/>
			<path fill="#8C2169" d="M408.974,618.086h-9.232v3.314h10.668C410.263,620.141,409.752,619.006,408.974,618.086z"/>
			<circle fill="#A52174" cx="399.72" cy="622.129" r="6.278"/>
			<circle fill="#301223" cx="399.721" cy="622.129" r="4.147"/>
			<path fill="#D04298" d="M403.026,622.129c0,1.824-1.479,3.305-3.306,3.305s-3.305-1.48-3.305-3.305
				c0-1.828,1.479-3.305,3.305-3.305S403.026,620.301,403.026,622.129z"/>
			<path fill="#B83D96" d="M400.241,618.875c-1.575,0.25-2.784,1.605-2.784,3.254c0,1.646,1.209,3.002,2.784,3.252
				c1.578-0.25,2.785-1.605,2.785-3.252C403.026,620.48,401.819,619.125,400.241,618.875z"/>
			<path fill="#1B201A" d="M400.987,621.318h-1.049c-0.471,0-0.853,0.379-0.853,0.852c0,0.471,0.382,0.854,0.853,0.854h1.049
				c0.471,0,0.853-0.383,0.853-0.854C401.839,621.697,401.458,621.318,400.987,621.318z"/>
			<circle fill="#535351" cx="399.939" cy="622.17" r="0.434"/>
		</g>
		<g>
			<path fill="#F7D7E7" d="M408.359,614.229c0.331,1.531-0.64,3.039-2.17,3.371l-8.516,1.848c-1.529,0.332-3.039-0.641-3.37-2.17
				l-1.617-7.457c-0.332-1.529,0.64-3.039,2.169-3.371l8.516-1.848c1.53-0.33,3.039,0.641,3.371,2.17L408.359,614.229z"/>
			<path fill="#E6A2C8" d="M400.455,615.943c0.332,1.529-0.64,3.039-2.169,3.371l-2.652,0.574c-1.529,0.332-3.039-0.639-3.37-2.17
				l-1.617-7.455c-0.332-1.531,0.64-3.041,2.169-3.373l2.652-0.574c1.529-0.332,3.039,0.641,3.371,2.17L400.455,615.943z"/>
			
				<rect x="391.047" y="609.116" transform="matrix(0.9773 -0.212 0.212 0.9773 -120.6992 97.7037)" fill="#684EA0" width="8.383" height="5.102"/>
		</g>
		<g>
			<path fill="#F7D7E7" d="M406.778,636.979c-0.321,1.533-1.824,2.516-3.355,2.193l-8.528-1.789
				c-1.532-0.322-2.514-1.824-2.191-3.357l1.566-7.467c0.321-1.531,1.824-2.514,3.356-2.191l8.527,1.789
				c1.532,0.32,2.514,1.824,2.192,3.355L406.778,636.979z"/>
			<path fill="#E6A2C8" d="M398.863,635.318c-0.321,1.533-1.824,2.514-3.355,2.193l-2.656-0.557
				c-1.532-0.322-2.513-1.826-2.191-3.357l1.566-7.467c0.321-1.533,1.824-2.514,3.356-2.193l2.655,0.557
				c1.532,0.322,2.514,1.826,2.192,3.357L398.863,635.318z"/>
		</g>
	</g>
	<g>
		<g>
			<rect x="470.125" y="607.943" fill="#A52174" width="1.748" height="6.826"/>
			<path fill="#D04298" d="M470.303,613.039c-0.584,0-1.057,0.473-1.057,1.057l0.004,9.062c0,0.584,0.473,1.057,1.057,1.057h1.395
				c0.584,0,1.057-0.473,1.057-1.057l-0.004-9.062c0-0.584-0.473-1.057-1.057-1.057H470.303z"/>
		</g>
		<g>
			<polygon fill="#A52174" points="471.527,605.99 470.951,604.322 464.398,606.451 464.977,608.119 			"/>
			<path fill="#D04298" d="M464.91,605.871c-0.529-0.244-1.158-0.018-1.406,0.51l-3,6.367c-0.248,0.529-0.018,1.154,0.514,1.4
				l1.264,0.586c0.529,0.246,1.16,0.018,1.408-0.51l2.998-6.369c0.246-0.525,0.018-1.152-0.512-1.398L464.91,605.871z"/>
		</g>
		<g>
			<rect x="475.792" y="607.943" fill="#A52174" width="1.748" height="6.826"/>
			<path fill="#D04298" d="M475.969,613.039c-0.584,0-1.057,0.473-1.057,1.057l0.004,9.062c0,0.584,0.473,1.057,1.057,1.057h1.395
				c0.584,0,1.057-0.473,1.057-1.057l-0.004-9.062c0-0.584-0.473-1.057-1.057-1.057H475.969z"/>
		</g>
		<g>
			<rect x="481.459" y="607.943" fill="#A52174" width="1.748" height="6.826"/>
			<path fill="#D04298" d="M481.635,613.039c-0.584,0-1.057,0.473-1.057,1.057l0.004,9.062c0,0.584,0.473,1.057,1.057,1.057h1.395
				c0.584,0,1.057-0.473,1.057-1.057l-0.004-9.062c0-0.584-0.473-1.057-1.057-1.057H481.635z"/>
		</g>
		<polygon fill="#D04298" points="484.375,603.572 469.064,603.572 469.066,609.793 484.379,609.793 		"/>
	</g>
	<g>
		<path fill="#F7D7E7" d="M481.641,603.688c0,1.051-0.852,1.902-1.902,1.902h-5.844c-1.051,0-1.9-0.852-1.9-1.902v-7.117
			c0-1.05,0.85-1.902,1.9-1.902h5.844c1.051,0,1.902,0.852,1.902,1.902V603.688z"/>
		<path fill="#E6A2C8" d="M476.215,603.688c0,1.051-0.85,1.902-1.9,1.902h-1.82c-1.051,0-1.9-0.852-1.9-1.902v-7.117
			c0-1.05,0.85-1.902,1.9-1.902h1.82c1.051,0,1.9,0.852,1.9,1.902V603.688z"/>
		<rect x="470.592" y="596.432" fill="#684EA0" width="5.623" height="3.424"/>
	</g>
	
		<rect x="369.647" y="581.661" transform="matrix(-0.9814 0.1918 -0.1918 -0.9814 857.8103 1087.2621)" fill="#301223" width="13.292" height="6.957"/>
	<polygon fill="#301223" points="366.567,599.383 372.019,587.264 365.67,584.403 360.218,596.523 	"/>
	<g>
		<path fill="#F7D7E7" d="M387.92,589.667c1.354-0.176,2.311-1.416,2.137-2.77l-0.974-7.537c-0.175-1.354-1.414-2.309-2.769-2.133
			l-6.601,0.85c-1.354,0.176-2.311,1.414-2.136,2.77l0.973,7.535c0.175,1.355,1.414,2.311,2.769,2.137L387.92,589.667z"/>
		<path fill="#E6A2C8" d="M387.017,582.67c1.354-0.174,2.311-1.414,2.138-2.77l-0.304-2.346c-0.175-1.354-1.415-2.311-2.77-2.135
			l-6.601,0.852c-1.354,0.176-2.311,1.414-2.136,2.768l0.303,2.348c0.176,1.354,1.415,2.309,2.77,2.135L387.017,582.67z"/>
		
			<rect x="378.323" y="577.408" transform="matrix(0.1281 0.9918 -0.9918 0.1281 907.9167 126.5632)" fill="#684EA0" width="7.312" height="4.452"/>
	</g>
	<g>
		<path fill="#6E1A55" d="M369.136,581.741h-1.398c-1.992,0-3.607,1.615-3.607,3.607s1.615,3.607,3.607,3.607h1.398
			c1.992,0,3.607-1.615,3.607-3.607S371.128,581.741,369.136,581.741z"/>
		<circle fill="#B83D96" cx="367.738" cy="585.348" r="3.607"/>
	</g>
	<g>
		<g>
			<rect x="368.516" y="607.943" fill="#A52174" width="1.748" height="6.826"/>
			<path fill="#D04298" d="M370.085,613.039c0.584,0,1.058,0.473,1.058,1.057l-0.004,9.062c0,0.584-0.474,1.057-1.058,1.057h-1.395
				c-0.583,0-1.057-0.473-1.057-1.057l0.004-9.062c0-0.584,0.474-1.057,1.057-1.057H370.085z"/>
		</g>
		<g>
			<polygon fill="#A52174" points="368.861,605.99 369.439,604.322 375.992,606.451 375.413,608.119 			"/>
			<path fill="#D04298" d="M375.478,605.871c0.53-0.244,1.159-0.018,1.407,0.51l2.999,6.367c0.248,0.529,0.019,1.154-0.512,1.4
				l-1.264,0.586c-0.53,0.246-1.16,0.018-1.408-0.51l-2.999-6.369c-0.247-0.525-0.018-1.152,0.512-1.398L375.478,605.871z"/>
		</g>
		<g>
			<rect x="362.849" y="607.943" fill="#A52174" width="1.748" height="6.826"/>
			<path fill="#D04298" d="M364.419,613.039c0.584,0,1.057,0.473,1.057,1.057l-0.004,9.062c0,0.584-0.473,1.057-1.057,1.057h-1.395
				c-0.584,0-1.057-0.473-1.057-1.057l0.004-9.062c0-0.584,0.473-1.057,1.057-1.057H364.419z"/>
		</g>
		<g>
			<rect x="357.182" y="607.943" fill="#A52174" width="1.748" height="6.826"/>
			<path fill="#D04298" d="M358.753,613.039c0.584,0,1.057,0.473,1.057,1.057l-0.004,9.062c0,0.584-0.473,1.057-1.057,1.057h-1.395
				c-0.584,0-1.057-0.473-1.057-1.057l0.004-9.062c0-0.584,0.473-1.057,1.057-1.057H358.753z"/>
		</g>
		<rect x="356.012" y="603.572" fill="#D04298" width="15.312" height="6.221"/>
	</g>
	<g>
		<path fill="#F7D7E7" d="M358.75,603.688c0,1.051,0.851,1.902,1.9,1.902h5.845c1.05,0,1.901-0.852,1.901-1.902v-7.117
			c0-1.05-0.852-1.902-1.901-1.902h-5.845c-1.05,0-1.9,0.852-1.9,1.902V603.688z"/>
		<path fill="#E6A2C8" d="M364.173,603.688c0,1.051,0.852,1.902,1.901,1.902h1.82c1.05,0,1.901-0.852,1.901-1.902v-7.117
			c0-1.05-0.852-1.902-1.901-1.902h-1.82c-1.05,0-1.901,0.852-1.901,1.902V603.688z"/>
		<rect x="364.173" y="596.432" fill="#684EA0" width="5.623" height="3.424"/>
	</g>
	<g>
		<path fill="#6E1A55" d="M393.008,572.776H388.4c-3.562,0-6.45,2.891-6.45,6.451c0,3.562,2.888,6.449,6.45,6.449h4.608
			c3.562,0,6.449-2.887,6.449-6.449C399.458,575.667,396.571,572.776,393.008,572.776z"/>
		<path fill="#8C2169" d="M397.907,575.075h-9.484v3.404h10.96C399.231,577.184,398.707,576.018,397.907,575.075z"/>
		<circle fill="#A52174" cx="388.4" cy="579.227" r="6.45"/>
		<circle fill="#301223" cx="388.4" cy="579.227" r="4.26"/>
		<circle fill="#D04298" cx="388.4" cy="579.227" r="3.396"/>
		<path fill="#B83D96" d="M388.935,575.885c-1.619,0.256-2.86,1.65-2.86,3.342c0,1.693,1.241,3.084,2.86,3.342
			c1.621-0.258,2.861-1.648,2.861-3.342C391.796,577.536,390.556,576.141,388.935,575.885z"/>
		<path fill="#1B201A" d="M389.701,578.395h-1.076c-0.484,0-0.876,0.389-0.876,0.875c0,0.484,0.392,0.875,0.876,0.875h1.076
			c0.484,0,0.877-0.391,0.877-0.875C390.578,578.784,390.185,578.395,389.701,578.395z"/>
		<circle fill="#535351" cx="388.625" cy="579.27" r="0.445"/>
	</g>
	<g>
		<g>
			<path fill="#6E1A55" d="M395.898,634.703H394.5c-1.992,0-3.607,1.615-3.607,3.607s1.615,3.607,3.607,3.607h1.398
				c1.992,0,3.607-1.615,3.607-3.607S397.89,634.703,395.898,634.703z"/>
			<circle fill="#B83D96" cx="394.5" cy="638.311" r="3.607"/>
		</g>
		<g>
			<path fill="#F7D7E7" d="M411.798,641.604c0,0.734-0.596,1.33-1.33,1.33h-8.821c-0.734,0-1.329-0.596-1.329-1.33v-2.197
				c0-0.734,0.595-1.33,1.329-1.33h8.821c0.734,0,1.33,0.596,1.33,1.33V641.604z"/>
			<path fill="#E6A2C8" d="M404.838,641.604c0,0.734-0.596,1.33-1.33,1.33h-13.821c-0.734,0-1.329-0.596-1.329-1.33v-2.197
				c0-0.734,0.595-1.33,1.329-1.33h13.821c0.734,0,1.33,0.596,1.33,1.33V641.604z"/>
		</g>
	</g>
	<g>
		<g>
			<path fill="#6E1A55" d="M437.561,634.703h-1.398c-1.992,0-3.607,1.615-3.607,3.607s1.615,3.607,3.607,3.607h1.398
				c1.992,0,3.607-1.615,3.607-3.607S439.553,634.703,437.561,634.703z"/>
			<circle fill="#B83D96" cx="436.162" cy="638.311" r="3.607"/>
		</g>
		<g>
			<path fill="#F7D7E7" d="M453.461,641.604c0,0.734-0.596,1.33-1.33,1.33h-8.822c-0.734,0-1.328-0.596-1.328-1.33v-2.197
				c0-0.734,0.594-1.33,1.328-1.33h8.822c0.734,0,1.33,0.596,1.33,1.33V641.604z"/>
			<path fill="#E6A2C8" d="M446.5,641.604c0,0.734-0.596,1.33-1.33,1.33h-13.82c-0.734,0-1.33-0.596-1.33-1.33v-2.197
				c0-0.734,0.596-1.33,1.33-1.33h13.82c0.734,0,1.33,0.596,1.33,1.33V641.604z"/>
		</g>
	</g>
</g>
</svg>
