<?xml version="1.0" encoding="utf-8"?>
<!-- Generator: Adobe Illustrator 16.0.0, SVG Export Plug-In . SVG Version: 6.00 Build 0)  -->
<!DOCTYPE svg PUBLIC "-//W3C//DTD SVG 1.1//EN" "http://www.w3.org/Graphics/SVG/1.1/DTD/svg11.dtd">
<svg version="1.1" id="Layer_1" xmlns="http://www.w3.org/2000/svg" xmlns:xlink="http://www.w3.org/1999/xlink" x="0px" y="0px"
	 width="841.89px" height="1190.55px" viewBox="0 0 841.89 1190.55" enable-background="new 0 0 841.89 1190.55"
	 xml:space="preserve">
<g>
	<g>
		<path fill="#D36AA9" d="M445.301,632.77c-0.809,0-1.465-0.656-1.465-1.465v-0.809c0-0.809,0.656-1.463,1.465-1.463h8.07
			c0.809,0,1.463,0.654,1.463,1.463l0.002,0.809c0,0.809-0.656,1.465-1.465,1.465H445.301z"/>
		<path fill="#D36AA9" d="M452.809,621.014c-2.75,0-4.98,2.23-4.98,4.982v6.773h9.963v-6.773
			C457.791,623.244,455.561,621.014,452.809,621.014z"/>
	</g>
	<path fill="#D36AA9" d="M465.582,627.436c-0.572,0.572-1.498,0.572-2.07,0l-0.572-0.572c-0.572-0.572-0.57-1.498,0-2.07
		l8.537-8.535c0.57-0.572,1.496-0.572,2.068,0l0.572,0.572c0.572,0.572,0.572,1.498,0,2.07L465.582,627.436z"/>
	<path fill="#F7D7E7" d="M459.34,631.689c-1.439,1.439-3.771,1.439-5.209-0.002l-12.492-12.375
		c-1.438-1.439-1.438-3.771,0.002-5.211l5.576-5.576c1.439-1.439,3.771-1.438,5.209,0.002l12.49,12.377
		c1.439,1.438,1.438,3.771-0.002,5.211L459.34,631.689z"/>
	<g>
		<g>
			<g>
				<path fill="#5D4EA0" d="M407.722,576.115c-1.566,0-2.836,1.27-2.836,2.834v17.125c0,1.564,1.27,2.834,2.836,2.834h2.281
					c1.564,0,2.834-1.27,2.834-2.834v-17.125c0-1.564-1.27-2.834-2.834-2.834H407.722z"/>
				<g>
					<path fill="#F0A2C7" d="M412.634,601.691c0,1.58-1.283,2.863-2.863,2.863h-1.816c-1.582,0-2.863-1.283-2.863-2.863v-4.051
						c0-1.582,1.281-2.865,2.863-2.865h1.816c1.58,0,2.863,1.283,2.863,2.865V601.691z"/>
				</g>
			</g>
		</g>
		<g>
			<g>
				<path fill="#5D4EA0" d="M368.678,576.09c-1.566,0-2.836,1.27-2.836,2.834v17.125c0,1.564,1.27,2.834,2.836,2.834h2.281
					c1.564,0,2.834-1.27,2.834-2.834v-17.125c0-1.564-1.27-2.834-2.834-2.834H368.678z"/>
				<g>
					<path fill="#F0A2C7" d="M373.59,601.666c0,1.58-1.283,2.863-2.863,2.863h-1.816c-1.582,0-2.863-1.283-2.863-2.863v-4.051
						c0-1.582,1.281-2.865,2.863-2.865h1.816c1.58,0,2.863,1.283,2.863,2.865V601.666z"/>
				</g>
			</g>
		</g>
		<g>
			<rect x="379.947" y="616.379" fill="#A1238F" width="3.996" height="9.383"/>
			<rect x="394.974" y="616.379" fill="#A1238F" width="3.996" height="9.383"/>
			<g>
				<g>
					<path fill="#EE1E5A" d="M397.915,617.529c1.565,0,2.835-1.27,2.835-2.836v-24.311c0-1.564-1.27-2.834-2.835-2.834h-1.979
						c-1.565,0-2.835,1.27-2.835,2.834v24.311c0,1.566,1.27,2.836,2.835,2.836H397.915z"/>
				</g>
			</g>
			<g>
				<g>
					<path fill="#EE1E5A" d="M383.072,617.529c1.565,0,2.835-1.27,2.835-2.836v-24.311c0-1.564-1.27-2.834-2.835-2.834h-1.979
						c-1.565,0-2.835,1.27-2.835,2.834v24.311c0,1.566,1.27,2.836,2.835,2.836H383.072z"/>
				</g>
			</g>
			<g>
				<path fill="#684EA0" d="M409.439,630.062l-10.491-5.805c-1.343-0.729-3.137-0.729-4.009,0l-1.656,5.805
					c-1.213,0.746-1.385,1.959-0.385,2.707h16.156C410.267,632.021,410.441,630.809,409.439,630.062z"/>
				<path fill="#F7D7E7" d="M409.439,630.062h-16.156c-1.213,0.746-1.385,1.959-0.385,2.707h16.156
					C410.267,632.021,410.441,630.809,409.439,630.062z"/>
			</g>
			<g>
				<path fill="#684EA0" d="M369.399,630.062l10.491-5.805c1.343-0.729,3.138-0.729,4.009,0l1.656,5.805
					c1.213,0.746,1.386,1.959,0.386,2.707h-16.156C368.571,632.021,368.398,630.809,369.399,630.062z"/>
				<path fill="#F7D7E7" d="M369.399,630.062h16.156c1.213,0.746,1.386,1.959,0.386,2.707h-16.156
					C368.571,632.021,368.398,630.809,369.399,630.062z"/>
			</g>
		</g>
		<path fill="#5D4EA0" d="M373.791,591.062c0,3.344,2.71,6.055,6.053,6.055h19.153c3.342,0,6.052-2.711,6.052-6.055v-12.865
			c0-3.344-2.71-6.055-6.052-6.055h-19.153c-3.343,0-6.053,2.711-6.053,6.055V591.062z"/>
		<rect x="388.568" y="583.02" fill="#E2EBEA" width="1.702" height="14.07"/>
		<g>
			<path fill="#684EA0" d="M379.255,572.193c-1.059-0.002-1.916,0.855-1.916,1.916l0.002,8.355
				c-0.001,1.057,0.858,1.916,1.917,1.916l8.36-0.002c1.059,0,1.917-0.857,1.916-1.918L379.255,572.193z"/>
			<path fill="#684EA0" d="M399.581,572.188c1.059,0,1.917,0.855,1.917,1.916l0.002,8.355c0.001,1.057-0.858,1.916-1.916,1.916
				l-8.36,0.002c-1.06,0.002-1.917-0.855-1.917-1.916L399.581,572.188z"/>
		</g>
	</g>
	<path fill="#E6A2C8" d="M452.773,631.305c0,0.809-0.654,1.465-1.463,1.465H450.5c-0.809,0-1.463-0.656-1.463-1.465v-12.07
		c0-0.809,0.654-1.463,1.463-1.463l0.811-0.002c0.809,0,1.463,0.656,1.463,1.465V631.305z"/>
	<path fill="#E6A2C8" d="M446.016,631.305c0,0.809-0.654,1.465-1.463,1.465h-0.809c-0.809,0-1.465-0.656-1.465-1.465v-12.07
		c0-0.809,0.656-1.463,1.465-1.463l0.809-0.002c0.809,0,1.463,0.656,1.463,1.465V631.305z"/>
	<g>
		<path fill="#E6A2C8" d="M455.434,632.77c-0.809,0-1.463-0.656-1.463-1.465v-0.809c0-0.809,0.654-1.463,1.463-1.463h8.072
			c0.809,0,1.463,0.654,1.463,1.463v0.809c0,0.809-0.654,1.465-1.463,1.465H455.434z"/>
		<path fill="#E6A2C8" d="M462.943,621.014c-2.752,0-4.982,2.23-4.982,4.982v6.773h9.963v-6.773
			C467.924,623.244,465.693,621.014,462.943,621.014z"/>
	</g>
	<path fill="none" stroke="#EE1E5A" stroke-width="1.7392" stroke-miterlimit="10" d="M444.967,600.273
		c0,8.359-8.961,15.135-20.014,15.135c-11.053,0-20.014-6.775-20.014-15.135"/>
	<g>
		<g>
			<path fill="#E6A2C8" d="M388.66,570.23c0,1.051,0.852,1.902,1.902,1.902h1.053c1.052,0,1.903-0.852,1.903-1.902v-11.797
				c0-1.051-0.852-1.902-1.903-1.902h-1.053c-1.051,0-1.902,0.852-1.902,1.902V570.23z"/>
			<path fill="#E6A2C8" d="M381.151,556.531h1.053c1.052,0,1.903,0.852,1.903,1.902v11.797l-4.858,1.988v-13.785
				C379.249,557.383,380.099,556.531,381.151,556.531z"/>
		</g>
		<path fill="#F7D7E7" d="M379.299,572.23c0-6.857,6.68-12.416,14.919-12.416s14.919,5.559,14.919,12.416H379.299z"/>
		<g>
			<path fill="#A52174" d="M391.865,563.359c0,1.195-0.97,2.164-2.165,2.164s-2.164-0.969-2.164-2.164H391.865z"/>
			<path fill="#A52174" d="M396.875,565.523c-1.195,0-2.165-0.969-2.165-2.164h4.329
				C399.039,564.555,398.069,565.523,396.875,565.523z"/>
		</g>
		<path fill="#EE1E5A" d="M401.64,570.91c0-1.656,1.342-2.998,2.998-2.998h3.552c0.603,1.346,0.947,2.797,0.947,4.318h-7.178
			C401.761,571.83,401.64,571.385,401.64,570.91z"/>
		<polygon fill="#E6A2C8" points="379.239,572.201 389.439,582.402 399.592,572.201 		"/>
	</g>
	<g>
		<path fill="#F49AC1" d="M455.877,609.684c0,1.494-1.213,2.705-2.705,2.705h-8.688c-1.494,0-2.705-1.211-2.705-2.705v-25.625
			c0-1.492,1.211-2.705,2.705-2.705h8.688c1.492,0,2.705,1.213,2.705,2.705V609.684z"/>
		<path fill="#ED2387" d="M453.172,581.354h-8.688c-1.494,0-2.705,1.213-2.705,2.705v5.953h14.098v-5.953
			C455.877,582.566,454.664,581.354,453.172,581.354z"/>
		<path fill="#EE1E5A" d="M454.07,581.354h-6.006c-1.492,0-2.703,1.213-2.703,2.705v5.059h11.414v-5.059
			C456.775,582.566,455.564,581.354,454.07,581.354z"/>
		<rect x="441.68" y="588.414" fill="#EE1E5A" width="24.943" height="2.18"/>
		
			<line fill="none" stroke="#E80D74" stroke-width="1.6104" stroke-linecap="round" stroke-linejoin="round" stroke-miterlimit="10" x1="450.826" y1="603.463" x2="447.178" y2="603.463"/>
		<g>
			<path fill="#A52174" d="M449.611,594.781c0,1.086,0.881,1.967,1.967,1.967c1.084,0,1.965-0.881,1.965-1.967H449.611z"/>
			<path fill="#A52174" d="M446.242,596.748c1.086,0,1.967-0.881,1.967-1.967h-3.932
				C444.277,595.867,445.156,596.748,446.242,596.748z"/>
		</g>
	</g>
	<path fill="#EE1E5A" d="M457.125,612.326c0,0.578-0.469,1.045-1.047,1.045h-14.322c-0.576,0-1.045-0.467-1.045-1.045v-2.369
		c0-0.576,0.469-1.045,1.045-1.045h14.322c0.578,0,1.047,0.467,1.047,1.045V612.326z"/>
	<circle fill="#E6A2C8" cx="379.295" cy="574.975" r="0.929"/>
	<circle fill="#E6A2C8" cx="379.295" cy="582.188" r="0.929"/>
	<circle fill="#E6A2C8" cx="399.438" cy="574.975" r="0.928"/>
	<circle fill="#E6A2C8" cx="399.438" cy="582.188" r="0.928"/>
	<g>
		<g>
			<path fill="#E80D74" d="M429.395,609.666c2.078,0,3.76,1.684,3.76,3.756v14.375c0,2.074-1.682,3.758-3.76,3.758h-1.322
				c-2.074,0-3.76-1.684-3.76-3.758v-14.375c0-2.072,1.682-3.756,3.76-3.756H429.395z"/>
			<path fill="#C51B76" d="M429.121,631.555h0.273c2.078,0,3.76-1.684,3.76-3.758v-14.375c0-2.072-1.682-3.756-3.76-3.756h-0.273
				V631.555z"/>
		</g>
		<g>
			<path fill="#E80D74" d="M438.955,629.01c0,2.078-1.682,3.76-3.756,3.76h-19.125c-2.076,0-3.759-1.682-3.759-3.76v-1.322
				c0-2.074,1.683-3.76,3.759-3.76h19.125c2.074,0,3.756,1.682,3.756,3.76V629.01z"/>
			<path fill="#C51B76" d="M412.315,628.736v0.273c0,2.078,1.683,3.76,3.759,3.76h19.125c2.074,0,3.756-1.682,3.756-3.76v-0.273
				H412.315z"/>
		</g>
		<g>
			<path fill="#E80D74" d="M436.58,620.16c0,2.078-1.682,3.76-3.756,3.76h-14.375c-2.075,0-3.758-1.682-3.758-3.76v-1.322
				c0-2.074,1.683-3.76,3.758-3.76h14.375c2.074,0,3.756,1.682,3.756,3.76V620.16z"/>
			<path fill="#C51B76" d="M414.691,619.887v0.273c0,2.078,1.683,3.76,3.758,3.76h14.375c2.074,0,3.756-1.682,3.756-3.76v-0.273
				H414.691z"/>
		</g>
	</g>
</g>
</svg>
