<?xml version="1.0" encoding="utf-8"?>
<!-- Generator: Adobe Illustrator 16.0.0, SVG Export Plug-In . SVG Version: 6.00 Build 0)  -->
<!DOCTYPE svg PUBLIC "-//W3C//DTD SVG 1.1//EN" "http://www.w3.org/Graphics/SVG/1.1/DTD/svg11.dtd">
<svg version="1.1" id="Layer_1" xmlns="http://www.w3.org/2000/svg" xmlns:xlink="http://www.w3.org/1999/xlink" x="0px" y="0px"
	 width="841.89px" height="1190.55px" viewBox="0 0 841.89 1190.55" enable-background="new 0 0 841.89 1190.55"
	 xml:space="preserve">
<g>
	<g>
		<path fill="#754C54" d="M427.434,622.539c1.312,0,2.373,1.062,2.373,2.371v9.076c0,1.311-1.061,2.373-2.373,2.373H426.6
			c-1.311,0-2.375-1.062-2.375-2.373v-9.076c0-1.309,1.062-2.371,2.375-2.371H427.434z"/>
		<path fill="#653B54" d="M427.262,636.359h0.172c1.312,0,2.373-1.062,2.373-2.373v-9.076c0-1.309-1.061-2.371-2.373-2.371h-0.172
			V636.359z"/>
	</g>
	<path fill="none" stroke="#B93B3F" stroke-width="1.7392" stroke-miterlimit="10" d="M445.301,604.631
		c0,8.359-8.959,15.135-20.014,15.135c-11.053,0-20.013-6.775-20.013-15.135"/>
	<g>
		<path fill="#AFB0C5" d="M445.635,637.127c-0.809,0-1.463-0.656-1.463-1.465v-0.809c0-0.809,0.654-1.463,1.463-1.463h8.072
			c0.809,0,1.463,0.654,1.463,1.463v0.809c0,0.809-0.654,1.465-1.463,1.465H445.635z"/>
		<path fill="#AFB0C5" d="M453.145,625.371c-2.752,0-4.982,2.23-4.982,4.982v6.773h9.963v-6.773
			C458.125,627.602,455.895,625.371,453.145,625.371z"/>
	</g>
	<path fill="#AFB0C5" d="M465.916,631.793c-0.57,0.572-1.498,0.572-2.07,0l-0.572-0.572c-0.57-0.572-0.57-1.498,0.002-2.07
		l8.535-8.535c0.572-0.572,1.498-0.572,2.068,0l0.574,0.572c0.57,0.572,0.57,1.498,0,2.07L465.916,631.793z"/>
	<g>
		<path fill="#C8D0DD" d="M446.928,611.762c0,0.809-0.654,1.463-1.463,1.463h-0.811c-0.809,0-1.463-0.654-1.463-1.463v-9.072
			c0-0.809,0.654-1.463,1.463-1.463h0.811c0.809,0,1.463,0.654,1.463,1.463V611.762z"/>
		<path fill="#C8D0DD" d="M452.701,601.227h-0.809c-0.809,0-1.463,0.654-1.463,1.463v9.072l3.736,1.529v-10.602
			C454.166,601.881,453.51,601.227,452.701,601.227z"/>
	</g>
	<path fill="#E2EBEA" d="M459.674,636.047c-1.439,1.439-3.77,1.439-5.209-0.002l-12.49-12.375c-1.438-1.439-1.438-3.771,0.002-5.211
		l5.574-5.576c1.439-1.439,3.771-1.438,5.209,0.002l12.492,12.377c1.438,1.438,1.438,3.771-0.002,5.211L459.674,636.047z"/>
	<g>
		<g>
			<g>
				<path fill="#4064AF" d="M408.057,580.473c-1.566,0-2.836,1.27-2.836,2.834v17.125c0,1.564,1.27,2.834,2.836,2.834h2.281
					c1.564,0,2.834-1.27,2.834-2.834v-17.125c0-1.564-1.27-2.834-2.834-2.834H408.057z"/>
				<g>
					<path fill="#F6D0BC" d="M412.969,606.049c0,1.58-1.283,2.863-2.863,2.863h-1.816c-1.582,0-2.863-1.283-2.863-2.863v-4.051
						c0-1.582,1.281-2.865,2.863-2.865h1.816c1.58,0,2.863,1.283,2.863,2.865V606.049z"/>
				</g>
			</g>
		</g>
		<g>
			<g>
				<path fill="#4064AF" d="M369.013,580.447c-1.566,0-2.836,1.27-2.836,2.834v17.125c0,1.564,1.27,2.834,2.836,2.834h2.281
					c1.564,0,2.834-1.27,2.834-2.834v-17.125c0-1.564-1.27-2.834-2.834-2.834H369.013z"/>
				<g>
					<path fill="#F6D0BC" d="M373.925,606.023c0,1.58-1.283,2.863-2.863,2.863h-1.816c-1.582,0-2.863-1.283-2.863-2.863v-4.051
						c0-1.582,1.281-2.865,2.863-2.865h1.816c1.58,0,2.863,1.283,2.863,2.865V606.023z"/>
				</g>
			</g>
		</g>
		<g>
			<g>
				<rect x="380.282" y="620.736" fill="#54556B" width="3.996" height="9.383"/>
				<rect x="395.309" y="620.736" fill="#54556B" width="3.996" height="9.383"/>
				<g>
					<g>
						<path fill="#B93B3F" d="M398.25,621.887c1.565,0,2.835-1.27,2.835-2.836V594.74c0-1.564-1.27-2.834-2.835-2.834h-1.979
							c-1.565,0-2.835,1.27-2.835,2.834v24.311c0,1.566,1.27,2.836,2.835,2.836H398.25z"/>
					</g>
				</g>
				<g>
					<g>
						<path fill="#B93B3F" d="M383.407,621.887c1.565,0,2.835-1.27,2.835-2.836V594.74c0-1.564-1.27-2.834-2.835-2.834h-1.979
							c-1.565,0-2.835,1.27-2.835,2.834v24.311c0,1.566,1.27,2.836,2.835,2.836H383.407z"/>
					</g>
				</g>
				<g>
					<path fill="#4479BD" d="M409.774,634.42l-10.491-5.805c-1.343-0.729-3.137-0.729-4.009,0l-1.656,5.805
						c-1.213,0.746-1.385,1.959-0.385,2.707h16.156C410.602,636.379,410.776,635.166,409.774,634.42z"/>
					<path fill="#E2EBEA" d="M409.774,634.42h-16.156c-1.213,0.746-1.385,1.959-0.385,2.707h16.156
						C410.602,636.379,410.776,635.166,409.774,634.42z"/>
				</g>
				<g>
					<path fill="#4479BD" d="M369.734,634.42l10.491-5.805c1.343-0.729,3.138-0.729,4.009,0l1.656,5.805
						c1.213,0.746,1.386,1.959,0.386,2.707H370.12C368.906,636.379,368.733,635.166,369.734,634.42z"/>
					<path fill="#E2EBEA" d="M369.734,634.42h16.156c1.213,0.746,1.386,1.959,0.386,2.707H370.12
						C368.906,636.379,368.733,635.166,369.734,634.42z"/>
				</g>
			</g>
			<path fill="#4064AF" d="M374.125,595.42c0,3.344,2.71,6.055,6.053,6.055h19.153c3.342,0,6.052-2.711,6.052-6.055v-12.865
				c0-3.344-2.71-6.055-6.052-6.055h-19.153c-3.343,0-6.053,2.711-6.053,6.055V595.42z"/>
			<rect x="388.903" y="587.377" fill="#E2EBEA" width="1.702" height="14.07"/>
			<g>
				<path fill="#F5CFA1" d="M397.604,583.854c0,1.672-1.355,3.025-3.025,3.025h-9.716c-1.67,0-3.023-1.354-3.023-3.025v-28.656
					c0-1.67,1.354-3.025,3.023-3.025h9.716c1.67,0,3.025,1.355,3.025,3.025V583.854z"/>
				<path fill="#CD6A5E" d="M394.579,552.172h-9.716c-1.67,0-3.023,1.355-3.023,3.025v6.656h15.765v-6.656
					C397.604,553.527,396.249,552.172,394.579,552.172z"/>
				<path fill="#B93B3F" d="M395.583,552.172h-6.716c-1.67,0-3.024,1.355-3.024,3.025v5.656h12.766v-5.656
					C398.609,553.527,397.253,552.172,395.583,552.172z"/>
				<rect x="381.727" y="560.066" fill="#B93B3F" width="27.896" height="2.439"/>
				
					<line fill="none" stroke="#754C54" stroke-width="1.8009" stroke-linecap="round" stroke-linejoin="round" stroke-miterlimit="10" x1="391.955" y1="576.896" x2="387.875" y2="576.896"/>
				<g>
					<path fill="#535351" d="M390.597,567.189c0,1.213,0.984,2.197,2.198,2.197s2.198-0.984,2.198-2.197H390.597z"/>
					<path fill="#535351" d="M386.83,569.387c1.214,0,2.198-0.984,2.198-2.197h-4.396
						C384.631,568.402,385.616,569.387,386.83,569.387z"/>
				</g>
			</g>
			<g>
				<path fill="#4479BD" d="M379.59,576.551c-1.059-0.002-1.916,0.855-1.916,1.916l0.002,8.355
					c-0.001,1.057,0.858,1.916,1.917,1.916l8.36-0.002c1.059,0,1.917-0.857,1.916-1.918L379.59,576.551z"/>
				<path fill="#4479BD" d="M399.916,576.545c1.059,0,1.917,0.855,1.917,1.916l0.002,8.355c0.001,1.057-0.858,1.916-1.916,1.916
					l-8.36,0.002c-1.06,0.002-1.917-0.855-1.917-1.916L399.916,576.545z"/>
			</g>
		</g>
	</g>
	<path fill="#E2EBEA" d="M454.125,613.299c0-5.273-5.137-9.547-11.473-9.547s-11.473,4.273-11.473,9.547H454.125z"/>
	<g>
		<path fill="#535351" d="M444.463,606.477c0,0.92,0.746,1.666,1.664,1.666c0.92,0,1.664-0.746,1.664-1.666H444.463z"/>
		<path fill="#535351" d="M440.609,608.143c0.92,0,1.666-0.746,1.666-1.666h-3.33C438.945,607.396,439.691,608.143,440.609,608.143z
			"/>
	</g>
	<path fill="#B93B3F" d="M436.945,612.283c0-1.273-1.033-2.305-2.307-2.305h-2.73c-0.463,1.035-0.729,2.15-0.729,3.32h5.52
		C436.852,612.992,436.945,612.65,436.945,612.283z"/>
	<path fill="#C8D0DD" d="M453.107,635.662c0,0.809-0.654,1.465-1.463,1.465h-0.811c-0.807,0-1.463-0.656-1.463-1.465v-12.07
		c0-0.809,0.654-1.463,1.463-1.463l0.811-0.002c0.809,0,1.463,0.656,1.463,1.465V635.662z"/>
	<path fill="#C8D0DD" d="M446.352,635.662c0,0.809-0.656,1.465-1.465,1.465h-0.809c-0.809,0-1.463-0.656-1.463-1.465v-12.07
		c0-0.809,0.654-1.463,1.463-1.463l0.809-0.002c0.809,0,1.465,0.656,1.465,1.465V635.662z"/>
	<path fill="#B93B3F" d="M457.459,616.684c0,0.578-0.469,1.045-1.045,1.045h-14.322c-0.578,0-1.047-0.467-1.047-1.045v-2.369
		c0-0.576,0.469-1.045,1.047-1.045h14.322c0.576,0,1.045,0.467,1.045,1.045V616.684z"/>
	<g>
		<path fill="#C8D0DD" d="M455.768,637.127c-0.809,0-1.463-0.656-1.463-1.465v-0.809c0-0.809,0.654-1.463,1.463-1.463h8.072
			c0.809,0,1.463,0.654,1.463,1.463v0.809c0,0.809-0.654,1.465-1.463,1.465H455.768z"/>
		<path fill="#C8D0DD" d="M463.277,625.371c-2.752,0-4.98,2.23-4.98,4.982v6.773h9.961v-6.773
			C468.258,627.602,466.027,625.371,463.277,625.371z"/>
	</g>
	<g>
		<path fill="#754C54" d="M433.471,634.754c0,1.311-1.062,2.373-2.371,2.373h-12.077c-1.311,0-2.373-1.062-2.373-2.373v-0.836
			c0-1.309,1.062-2.373,2.373-2.373H431.1c1.309,0,2.371,1.061,2.371,2.373V634.754z"/>
		<path fill="#653B54" d="M416.65,634.58v0.174c0,1.311,1.062,2.373,2.373,2.373H431.1c1.309,0,2.371-1.062,2.371-2.373v-0.174
			H416.65z"/>
	</g>
	<g>
		<path fill="#754C54" d="M431.971,629.166c0,1.311-1.062,2.373-2.371,2.373h-9.077c-1.311,0-2.373-1.062-2.373-2.373v-0.836
			c0-1.309,1.062-2.373,2.373-2.373h9.077c1.309,0,2.371,1.061,2.371,2.373V629.166z"/>
		<path fill="#653B54" d="M418.15,628.992v0.174c0,1.311,1.062,2.373,2.373,2.373h9.077c1.309,0,2.371-1.062,2.371-2.373v-0.174
			H418.15z"/>
	</g>
</g>
</svg>
