<?xml version="1.0" encoding="utf-8"?>
<!-- Generator: Adobe Illustrator 16.0.0, SVG Export Plug-In . SVG Version: 6.00 Build 0)  -->
<!DOCTYPE svg PUBLIC "-//W3C//DTD SVG 1.1//EN" "http://www.w3.org/Graphics/SVG/1.1/DTD/svg11.dtd">
<svg version="1.1" id="Layer_1" xmlns="http://www.w3.org/2000/svg" xmlns:xlink="http://www.w3.org/1999/xlink" x="0px" y="0px"
	 width="841.89px" height="1190.55px" viewBox="0 0 841.89 1190.55" enable-background="new 0 0 841.89 1190.55"
	 xml:space="preserve">
<g>
	<path fill="none" stroke="#B93B3F" stroke-width="1.5533" stroke-miterlimit="10" d="M418.451,593.727
		c0,8.359-7.729,18.15-17.265,21.873c-9.536,3.721-17.265-0.039-17.265-8.396"/>
	<path fill="#1B201A" d="M451.352,593.984c0.846,0,1.561,1.051,1.561,2.297v16.754h7.197v-12.602c0-7.561-6.322-9.217-8.758-9.217
		c-2.387,0-4.329,2.271-4.329,5.064h2.769C449.791,595.035,450.506,593.984,451.352,593.984z"/>
	<g>
		<g>
			<path fill="#754C54" d="M443.321,622.459c0,0.703-0.569,1.273-1.272,1.273h-1.464c-0.703,0-1.272-0.57-1.272-1.271v-9.268
				c0-0.703,0.569-1.271,1.272-1.271h1.464c0.703,0,1.272,0.568,1.272,1.271V622.459z"/>
			<path fill="#754C54" d="M443.321,634.727c0,0.705-0.569,1.273-1.272,1.273h-1.464c-0.703,0-1.272-0.568-1.272-1.271v-7.734
				c0-0.703,0.569-1.273,1.272-1.273h1.464c0.703,0,1.272,0.57,1.272,1.273V634.727z"/>
			<ellipse fill="#754C54" cx="441.317" cy="624.617" rx="2.945" ry="3.926"/>
		</g>
		<path fill="#1B201A" d="M439.841,631.566c-1.899,0-3.44,2.213-3.44,4.945h6.881C443.281,633.779,441.741,631.566,439.841,631.566z
			"/>
	</g>
	<g>
		<g>
			<path fill="#54556B" d="M424.186,621.449c-1.183,0-2.142-0.959-2.142-2.141V594.9c0-1.182,0.959-2.141,2.142-2.141h1.494
				c1.183,0,2.142,0.959,2.142,2.141v24.408c0,1.182-0.959,2.141-2.142,2.141H424.186z"/>
		</g>
	</g>
	<path fill="#F49624" d="M422.487,616.006c-3.449,0-6.244,2.438-6.244,5.445h12.487C428.73,618.445,425.936,616.006,422.487,616.006
		z"/>
	<path fill="#1B201A" d="M422.465,616.848c-3.069,0-5.557,2.391-5.557,5.338h11.113
		C428.021,619.238,425.533,616.848,422.465,616.848z"/>
	<path fill="#754C54" d="M451.703,613.828c0,1.184-0.958,2.141-2.141,2.141c0,0-7.23,2.383-19.445,2.383
		c-12.213,0-20.338-2.383-20.338-2.383c-1.183,0-2.141-0.957-2.141-2.141v-16.365c0-1.184,0.958-2.143,2.141-2.143h39.783
		c1.183,0,2.141,0.959,2.141,2.143V613.828z"/>
	<path fill="#754C54" d="M410.535,604.148c-0.658,0.982-2.071,1.393-3.155,0.918l-19.392-8.514c-1.084-0.477-1.43-1.658-0.772-2.641
		l4.902-7.32c0.658-0.982,2.071-1.393,3.156-0.918l19.392,8.514c1.084,0.475,1.43,1.658,0.772,2.641L410.535,604.148z"/>
	<g>
		<rect x="424.257" y="595.361" fill="#FFFFFF" width="19.74" height="11.031"/>
		<rect x="425.768" y="595.361" fill="#3C9E8B" width="16.57" height="9.539"/>
	</g>
	<g>
		<g>
			<path fill="#5C8DC9" d="M420.91,593.736c-1.183,0-2.142-0.959-2.142-2.141v-10.193c0-1.182,0.959-2.141,2.142-2.141h1.724
				c1.183,0,2.142,0.959,2.142,2.141v10.193c0,1.182-0.959,2.141-2.142,2.141H420.91z"/>
			<g>
				<g>
					<path fill="#F5CFA1" d="M416.696,587.885c-1.194,0-2.163,0.969-2.163,2.162v1.373c0,1.195,0.969,2.162,2.163,2.162h3.06
						c1.195,0,2.164-0.967,2.164-2.162v-1.373c0-1.193-0.969-2.162-2.164-2.162H416.696z"/>
				</g>
			</g>
		</g>
		<g>
			<g>
				<g>
					<path fill="#54556B" d="M437.782,621.449c-1.183,0-2.142-0.959-2.142-2.141V594.9c0-1.182,0.959-2.141,2.142-2.141h1.495
						c1.183,0,2.142,0.959,2.142,2.141v24.408c0,1.182-0.959,2.141-2.142,2.141H437.782z"/>
				</g>
			</g>
			<path fill="#F49624" d="M436.084,616.006c-3.448,0-6.244,2.439-6.244,5.445h12.488
				C442.328,618.445,439.533,616.006,436.084,616.006z"/>
			<path fill="#1B201A" d="M436.062,616.848c-3.068,0-5.556,2.391-5.556,5.338h11.112
				C441.618,619.238,439.131,616.848,436.062,616.848z"/>
			<g>
				<path fill="#75A0D3" d="M445.544,591.225c0,2.525-2.047,4.572-4.571,4.572h-14.469c-2.525,0-4.572-2.047-4.572-4.572v-9.721
					c0-2.523,2.047-4.572,4.572-4.572h14.469c2.524,0,4.571,2.049,4.571,4.572V591.225z"/>
				<path fill="#5C8DC9" d="M439.491,579.326h-2.441V593.4h2.441c2.008,0,3.636-1.627,3.636-3.635v-10.439
					C443.127,577.318,441.499,579.326,439.491,579.326z"/>
				<circle fill="#687281" cx="433.964" cy="585.719" r="0.909"/>
				<circle fill="#687281" cx="433.964" cy="592.004" r="0.909"/>
			</g>
			<rect x="419.646" y="576.697" fill="#F49624" width="7.479" height="2.609"/>
			<rect x="437.734" y="576.697" fill="#F49624" width="7.479" height="2.609"/>
			<g>
				<ellipse fill="#B93B3F" cx="433.209" cy="560.557" rx="12.779" ry="7.096"/>
				<ellipse fill="#687281" cx="433.209" cy="561.438" rx="12.779" ry="7.096"/>
				<ellipse fill="#F5CFA1" cx="433.209" cy="572.227" rx="8.002" ry="10.646"/>
				
					<line fill="none" stroke="#754C54" stroke-width="1.3604" stroke-linecap="round" stroke-linejoin="round" stroke-miterlimit="10" x1="429.023" y1="579.344" x2="437.394" y2="579.344"/>
				<path fill="#B93B3F" d="M433.209,560.9c-4.861,0-8.802,2.707-8.802,6.047h17.604C442.011,563.607,438.07,560.902,433.209,560.9z
					"/>
				<path fill="#1B201A" d="M433.209,569.795c4.861,0,8.802-1.275,8.802-2.85h-17.604
					C424.407,568.52,428.348,569.795,433.209,569.795z"/>
				<polygon fill="#F49624" points="433.209,562.361 433.776,563.51 435.045,563.693 434.127,564.588 434.344,565.852 
					433.209,565.256 432.074,565.852 432.291,564.588 431.373,563.693 432.642,563.51 				"/>
				<polygon fill="#F49624" points="434.4,556.691 433.209,557.275 432.017,556.691 429.351,557.004 431.28,558.527 
					433.209,559.662 435.138,558.527 437.066,557.004 				"/>
				<g>
					<path fill="#535351" d="M428.539,570.674c0,0.918,0.744,1.662,1.661,1.662s1.66-0.744,1.66-1.662H428.539z"/>
					<path fill="#535351" d="M434.557,570.674c0,0.918,0.744,1.662,1.661,1.662s1.66-0.744,1.66-1.662H434.557z"/>
				</g>
				<path fill="#F09071" d="M434.492,571.275c0-0.352-0.287-0.639-0.641-0.639h-1.277c-0.354,0-0.64,0.287-0.64,0.639v3.713
					c0,0.354,0.286,0.639,0.64,0.639h1.277c0.354,0,0.641-0.285,0.641-0.639V571.275z"/>
			</g>
			<g>
				<path fill="#75A0D3" d="M446.719,591.816c0,1.184-0.959,2.143-2.141,2.143h-6.893c-1.183,0-2.142-0.959-2.142-2.143v-1.723
					c0-1.182,0.959-2.141,2.142-2.141h6.893c1.182,0,2.141,0.959,2.141,2.141V591.816z"/>
				<g>
					<path fill="#F5CFA1" d="M436.637,588.105c1.194,0,2.162,0.969,2.162,2.164v1.371c0,1.195-0.968,2.162-2.162,2.162h-3.061
						c-1.195,0-2.163-0.967-2.163-2.162v-1.371c0-1.195,0.968-2.164,2.163-2.164H436.637z"/>
				</g>
				<path fill="#75A0D3" d="M442.854,593.953c-1.182,0-2.141-0.959-2.141-2.141v-10.387c0-1.182,0.959-2.141,2.141-2.141h1.724
					c1.183,0,2.142,0.959,2.142,2.141v10.387c0,1.182-0.959,2.141-2.142,2.141H442.854z"/>
			</g>
		</g>
	</g>
	<path fill="#754C54" d="M393.368,584.967c1.183,0,2.143,0.959,2.143,2.141l-3.765,21.148c0,1.182-0.957,2.141-2.14,2.143
		l-5.032,0.002c-1.182,0-2.141-0.957-2.142-2.141l-0.013-21.15c-0.001-1.182,0.958-2.141,2.14-2.141L393.368,584.967z"/>
	<path fill="#754C54" d="M394.068,585.814c0.335,0,0.607-0.271,0.607-0.607l-1.067-5.998c0-0.336-0.271-0.607-0.607-0.607h-1.427
		c-0.335,0-0.607,0.271-0.607,0.607l-0.004,5.996c0,0.336,0.272,0.607,0.607,0.607L394.068,585.814z"/>
	<path fill="#754C54" d="M387.007,585.814c0.335,0,0.547-0.273,0.474-0.607l-2.389-5.998c-0.074-0.336-0.406-0.607-0.741-0.607
		h-1.427c-0.335,0-0.547,0.271-0.474,0.607l1.318,5.996c0.073,0.336,0.405,0.607,0.74,0.607L387.007,585.814z"/>
	<g>
		<g>
			<path fill="#754C54" d="M411.598,622.459c0,0.703-0.569,1.273-1.272,1.273h-1.464c-0.703,0-1.272-0.57-1.272-1.273v-9.266
				c0-0.703,0.569-1.273,1.272-1.273h1.464c0.703,0,1.272,0.57,1.272,1.273V622.459z"/>
			<path fill="#754C54" d="M411.598,634.727c0,0.705-0.569,1.273-1.272,1.273h-1.464c-0.703,0-1.272-0.568-1.272-1.271v-7.734
				c0-0.703,0.569-1.273,1.272-1.273h1.464c0.703,0,1.272,0.57,1.272,1.273V634.727z"/>
			<ellipse fill="#754C54" cx="409.594" cy="624.617" rx="2.945" ry="3.926"/>
		</g>
		<path fill="#1B201A" d="M408.118,631.564c-1.9,0-3.44,2.215-3.44,4.947h6.88C411.558,633.779,410.018,631.564,408.118,631.564z"/>
	</g>
	<g>
		<g>
			<path fill="#754C54" d="M419.909,622.459c0,0.703-0.569,1.273-1.272,1.273h-1.464c-0.703,0-1.272-0.57-1.272-1.273v-9.266
				c0-0.703,0.569-1.273,1.272-1.273h1.464c0.703,0,1.272,0.57,1.272,1.273V622.459z"/>
			<path fill="#754C54" d="M419.909,634.727c0,0.705-0.569,1.273-1.272,1.273h-1.464c-0.703,0-1.272-0.568-1.272-1.271v-7.734
				c0-0.703,0.569-1.273,1.272-1.273h1.464c0.703,0,1.272,0.57,1.272,1.273V634.727z"/>
			<ellipse fill="#754C54" cx="417.904" cy="624.617" rx="2.945" ry="3.926"/>
		</g>
		<path fill="#1B201A" d="M416.428,631.564c-1.9,0-3.44,2.215-3.44,4.947h6.88C419.869,633.779,418.328,631.564,416.428,631.564z"/>
	</g>
	<g>
		<g>
			<path fill="#754C54" d="M451.632,622.459c0,0.703-0.569,1.273-1.272,1.273h-1.464c-0.703,0-1.272-0.57-1.272-1.271v-9.268
				c0-0.703,0.569-1.271,1.272-1.271h1.464c0.703,0,1.272,0.568,1.272,1.271V622.459z"/>
			<path fill="#754C54" d="M451.632,634.727c0,0.705-0.569,1.273-1.272,1.273h-1.464c-0.703,0-1.272-0.568-1.272-1.271v-7.734
				c0-0.703,0.569-1.273,1.272-1.273h1.464c0.703,0,1.272,0.57,1.272,1.273V634.727z"/>
			<ellipse fill="#754C54" cx="449.627" cy="624.617" rx="2.945" ry="3.926"/>
		</g>
		<path fill="#1B201A" d="M448.151,631.566c-1.899,0-3.44,2.213-3.44,4.945h6.881C451.592,633.779,450.052,631.566,448.151,631.566z
			"/>
	</g>
	<path fill="none" stroke="#B93B3F" stroke-width="1.7392" stroke-miterlimit="10" d="M434.495,593.727
		c0,8.359-9.69,18.15-21.644,21.873c-11.953,3.721-21.643-0.039-21.643-8.396"/>
	<g>
		<path fill="#1B201A" d="M414.012,592.846l-19.541-8.781c-0.001,0-0.002-0.002-0.003-0.002c0.068,0.695,0.114,1.637,0.114,2.902
			v4.014c0,1.566,1.263,3.402,2.821,4.102l16.608,7.449c1.558,0.699,2.821-0.004,2.821-1.568v-4.016
			C416.833,595.379,415.57,593.545,414.012,592.846z"/>
	</g>
	<path fill="#1B201A" d="M380.948,589.373c0,0.703,0.567,1.02,1.267,0.705l7.461-3.346c0.7-0.314,1.268-1.139,1.268-1.842v-1.805
		c0-0.703-0.567-1.018-1.268-0.705l-7.461,3.348c-0.7,0.314-1.267,1.139-1.267,1.842V589.373z"/>
	<g>
		<path fill="#1B201A" d="M383.203,595.068c0,0.918,0.744,1.662,1.661,1.662s1.66-0.744,1.66-1.662H383.203z"/>
		<path fill="#1B201A" d="M389.22,595.068c0,0.918,0.744,1.662,1.661,1.662s1.66-0.744,1.66-1.662H389.22z"/>
	</g>
</g>
</svg>
