<?xml version="1.0" encoding="utf-8"?>
<!-- Generator: Adobe Illustrator 16.0.0, SVG Export Plug-In . SVG Version: 6.00 Build 0)  -->
<!DOCTYPE svg PUBLIC "-//W3C//DTD SVG 1.1//EN" "http://www.w3.org/Graphics/SVG/1.1/DTD/svg11.dtd">
<svg version="1.1" id="Layer_1" xmlns="http://www.w3.org/2000/svg" xmlns:xlink="http://www.w3.org/1999/xlink" x="0px" y="0px"
	 width="841.89px" height="1190.55px" viewBox="0 0 841.89 1190.55" enable-background="new 0 0 841.89 1190.55"
	 xml:space="preserve">
<g>
	<ellipse fill="#332643" cx="436.984" cy="574.839" rx="13.279" ry="1.98"/>
	<rect x="457.711" y="616.6" fill="#4064AF" width="10.846" height="6.393"/>
	<g>
		<g>
			<g>
				<g>
					<path fill="#AE2B3F" d="M421.477,613.83c-1.106-1.105-1.106-2.902,0-4.008l17.19-17.191c1.107-1.106,2.902-1.106,4.01,0
						l1.398,1.399c1.107,1.106,1.107,2.903,0,4.008l-17.189,17.191c-1.107,1.105-2.902,1.105-4.01,0L421.477,613.83z"/>
				</g>
			</g>
		</g>
		<path fill="#B93B3F" d="M467.445,619.76c1.395,1.395,3.654,1.395,5.047,0.002l4.45-4.449c1.394-1.395,1.393-3.654-0.001-5.049
			l-24.924-24.929c-1.394-1.394-3.653-1.395-5.047-0.001l-4.449,4.45c-1.395,1.394-1.394,3.653,0,5.047L467.445,619.76z"/>
		<path fill="#AE2B3F" d="M465.797,621.408c1.394,1.395,3.309,1.74,4.277,0.771l3.092-3.092c0.969-0.969,0.623-2.885-0.771-4.277
			l-24.925-24.929c-1.394-1.394-3.309-1.739-4.277-0.771l-3.092,3.093c-0.969,0.968-0.623,2.883,0.771,4.277L465.797,621.408z"/>
		<path fill="#653B54" d="M386.142,610.518c0,1.971,1.598,3.568,3.568,3.568h11.294c1.971,0,3.568-1.598,3.568-3.568v-15.252
			c0-1.971-1.598-3.569-3.568-3.569H389.71c-1.971,0-3.568,1.599-3.568,3.569V610.518z"/>
		<g>
			<g>
				<g>
					<path fill="#4479BD" d="M372.705,630.639c-1.565,0-2.835-1.27-2.835-2.836v-24.311c0-1.564,1.27-2.834,2.835-2.834h1.979
						c1.565,0,2.835,1.27,2.835,2.834v24.311c0,1.566-1.27,2.836-2.835,2.836H372.705z"/>
				</g>
				<path fill="#754C54" d="M370.427,623.545c-4.062,0-7.355,3.164-7.355,7.068h14.711
					C377.782,626.709,374.489,623.545,370.427,623.545z"/>
			</g>
			<g>
				<g>
					<path fill="#4479BD" d="M418.01,630.639c1.565,0,2.835-1.27,2.835-2.836v-24.311c0-1.564-1.27-2.834-2.835-2.834h-1.979
						c-1.565,0-2.835,1.27-2.835,2.834v24.311c0,1.566,1.27,2.836,2.835,2.836H418.01z"/>
				</g>
				<path fill="#754C54" d="M420.289,623.545c4.063,0,7.356,3.164,7.356,7.068h-14.711
					C412.933,626.709,416.226,623.545,420.289,623.545z"/>
			</g>
		</g>
		<g>
			<g>
				<g>
					<path fill="#4479BD" d="M398.847,622.168c1.106,1.105,2.902,1.105,4.009,0l17.19-17.191c1.106-1.107,1.106-2.902,0-4.01
						l-1.399-1.398c-1.106-1.107-2.902-1.107-4.009,0l-17.19,17.189c-1.106,1.107-1.106,2.902,0,4.01L398.847,622.168z"/>
				</g>
			</g>
			<path fill="#4479BD" d="M404.25,616.758l-3.483-3.482h-10.817l-0.083,0.082l-13.79-13.789c-1.106-1.107-2.902-1.107-4.009,0
				l-1.399,1.398c-1.106,1.107-1.106,2.902,0,4.01l17.19,17.191c0.554,0.553,1.281,0.83,2.007,0.828h11.077
				c0.692-0.023,1.378-0.301,1.906-0.828l1.399-1.4C405.356,619.66,405.356,617.865,404.25,616.758z"/>
		</g>
		<g>
			<g>
				<g>
					<g>
						<path fill="#4064AF" d="M440.57,630.639c-1.564,0-2.834-1.27-2.834-2.836v-24.311c0-1.564,1.27-2.834,2.834-2.834h1.979
							c1.566,0,2.836,1.27,2.836,2.834v24.311c0,1.566-1.27,2.836-2.836,2.836H440.57z"/>
					</g>
					<path fill="#653B54" d="M438.293,623.545c-4.062,0-7.355,3.164-7.355,7.068h14.711
						C445.648,626.709,442.355,623.545,438.293,623.545z"/>
				</g>
			</g>
			<g>
				<g>
					<g>
						<path fill="#4064AF" d="M459.734,622.168c-1.107,1.105-2.902,1.105-4.01,0l-17.189-17.191c-1.107-1.107-1.107-2.902,0-4.01
							l1.398-1.398c1.107-1.107,2.902-1.107,4.01,0l17.189,17.189c1.107,1.107,1.107,2.902,0,4.01L459.734,622.168z"/>
					</g>
				</g>
			</g>
		</g>
		<g>
			<g>
				<g>
					<g>
						<path fill="#4479BD" d="M451.262,630.639c-1.565,0-2.835-1.27-2.835-2.836v-24.311c0-1.564,1.27-2.834,2.835-2.834h1.979
							c1.565,0,2.835,1.27,2.835,2.834v24.311c0,1.566-1.27,2.836-2.835,2.836H451.262z"/>
					</g>
					<path fill="#754C54" d="M448.983,623.545c-4.062,0-7.355,3.164-7.355,7.068h14.711
						C456.339,626.709,453.046,623.545,448.983,623.545z"/>
				</g>
			</g>
			<g>
				<g>
					<g>
						<path fill="#4479BD" d="M470.425,622.168c-1.106,1.105-2.902,1.105-4.009,0l-17.19-17.191c-1.106-1.107-1.106-2.902,0-4.01
							l1.399-1.398c1.106-1.107,2.902-1.107,4.009,0l17.19,17.189c1.106,1.107,1.106,2.902,0,4.01L470.425,622.168z"/>
					</g>
				</g>
			</g>
		</g>
		<g>
			<g>
				<g>
					<path fill="#653B54" d="M371.565,593.249c-1.107,1.108-1.107,2.904-0.001,4.009l6.452,6.453
						c1.106,1.105,2.902,1.105,4.01-0.002l1.613-1.613c1.105-1.105,1.105-2.9-0.001-4.008l-6.451-6.452
						c-1.107-1.106-2.902-1.106-4.009,0L371.565,593.249z"/>
					<path fill="#653B54" d="M370.214,593.968c-0.001,1.566,1.266,2.838,2.83,2.838l15.119,0.006c1.563,0,2.834-1.269,2.836-2.836
						l0.002-2.283c0.002-1.567-1.266-2.839-2.829-2.84l-15.119-0.005c-1.564-0.001-2.834,1.269-2.836,2.837L370.214,593.968z"/>
					<polyline fill="none" stroke="#E2EBEA" stroke-linecap="round" stroke-linejoin="round" stroke-miterlimit="10" points="
						379.016,602.389 370.968,594.341 370.968,591.295 372.327,589.936 387.281,589.936 					"/>
					<polyline fill="none" stroke="#E2EBEA" stroke-linecap="round" stroke-linejoin="round" stroke-miterlimit="10" points="
						379.048,600.531 372.29,593.78 372.29,592.099 373.11,591.239 388.072,591.239 					"/>
					<g>
						<path fill="#F6D0BC" d="M384.477,599.213c-1.118-1.117-2.932-1.117-4.049,0l-1.284,1.285c-1.119,1.119-1.118,2.932,0,4.049
							l2.863,2.865c1.119,1.117,2.932,1.119,4.051,0l1.284-1.285c1.117-1.117,1.118-2.932-0.001-4.049L384.477,599.213z"/>
					</g>
				</g>
			</g>
			<g>
				<g>
					<path fill="#653B54" d="M419.148,593.249c1.107,1.108,1.107,2.904,0.001,4.009l-6.452,6.453
						c-1.106,1.105-2.902,1.105-4.01-0.002l-1.613-1.613c-1.105-1.105-1.105-2.9,0.001-4.008l6.451-6.452
						c1.107-1.106,2.902-1.106,4.009,0L419.148,593.249z"/>
					<path fill="#653B54" d="M420.501,593.968c0.001,1.566-1.267,2.838-2.83,2.838l-15.119,0.006c-1.564,0-2.834-1.269-2.836-2.836
						l-0.002-2.283c-0.002-1.567,1.265-2.839,2.829-2.84l15.119-0.005c1.563-0.001,2.834,1.269,2.836,2.837L420.501,593.968z"/>
					<polyline fill="none" stroke="#E2EBEA" stroke-linecap="round" stroke-linejoin="round" stroke-miterlimit="10" points="
						411.698,602.389 419.746,594.341 419.746,591.295 418.387,589.936 403.433,589.936 					"/>
					<polyline fill="none" stroke="#E2EBEA" stroke-linecap="round" stroke-linejoin="round" stroke-miterlimit="10" points="
						411.666,600.531 418.424,593.78 418.424,592.099 417.604,591.239 402.643,591.239 					"/>
					<g>
						<path fill="#F6D0BC" d="M406.237,599.213c1.118-1.117,2.932-1.117,4.049,0l1.284,1.285c1.119,1.119,1.118,2.932,0,4.049
							l-2.863,2.865c-1.119,1.117-2.932,1.119-4.051,0l-1.284-1.285c-1.117-1.117-1.118-2.932,0.001-4.049L406.237,599.213z"/>
					</g>
				</g>
			</g>
		</g>
		<g>
			<g>
				<g>
					<ellipse fill="#F5CFA1" cx="395.357" cy="582.748" rx="9.411" ry="14.092"/>
				</g>
				<path fill="#535351" d="M401.661,562.341c0-1.565-1.27-2.835-2.835-2.835h-6.938c-1.565,0-2.835,1.27-2.835,2.835l-2,12.752
					c0,1.565,1.27,2.835,2.835,2.835h10.938c1.565,0,2.835-1.27,2.835-2.835L401.661,562.341z"/>
				<path fill="#687281" d="M405.5,578.061c0,0.579-0.47,1.049-1.049,1.049h-18.188c-0.579,0-1.048-0.47-1.048-1.049v-2.982
					c0-0.58,0.469-1.049,1.048-1.049h18.188c0.579,0,1.049,0.47,1.049,1.049V578.061z"/>
			</g>
			<g>
				<path fill="#E2EBEA" d="M395.544,592.626h4.592v-2.369h-4.592c-0.654,0-1.185,0.53-1.185,1.185S394.89,592.626,395.544,592.626z
					"/>
				<circle fill="#B93B3F" cx="400.136" cy="591.442" r="1.185"/>
			</g>
			<g>
				<circle fill="#332643" cx="391.363" cy="582.94" r="1.945"/>
				<ellipse fill="#332643" cx="399.141" cy="583.151" rx="2.155" ry="0.473"/>
			</g>
		</g>
		<g>
			<g>
				<g>
					<ellipse fill="#F5CFA1" cx="440.22" cy="582.748" rx="9.411" ry="14.092"/>
				</g>
			</g>
			<g>
				<g>
					<ellipse fill="#332643" cx="444.247" cy="583.151" rx="2.155" ry="2.124"/>
				</g>
				<g>
					<ellipse fill="#332643" cx="436.192" cy="583.151" rx="2.155" ry="2.124"/>
				</g>
			</g>
			<ellipse fill="#F09071" cx="440.22" cy="586.422" rx="2.054" ry="3.439"/>
		</g>
		<g>
			<ellipse fill="#332643" cx="387.721" cy="630.508" rx="1.785" ry="0.813"/>
			<ellipse fill="#332643" cx="392.743" cy="630.508" rx="1.785" ry="0.813"/>
			<ellipse fill="#332643" cx="397.764" cy="630.508" rx="1.785" ry="0.813"/>
			<ellipse fill="#332643" cx="402.786" cy="630.508" rx="1.785" ry="0.813"/>
			<ellipse fill="#332643" cx="385.315" cy="628.297" rx="1.785" ry="0.811"/>
			<ellipse fill="#332643" cx="390.336" cy="628.297" rx="1.785" ry="0.811"/>
			<ellipse fill="#332643" cx="395.358" cy="628.297" rx="1.785" ry="0.811"/>
			<ellipse fill="#332643" cx="400.379" cy="628.297" rx="1.785" ry="0.811"/>
			<ellipse fill="#332643" cx="405.401" cy="628.297" rx="1.785" ry="0.811"/>
			<ellipse fill="#332643" cx="387.929" cy="626.084" rx="1.785" ry="0.813"/>
			<ellipse fill="#332643" cx="392.951" cy="626.084" rx="1.785" ry="0.813"/>
			<ellipse fill="#332643" cx="397.972" cy="626.084" rx="1.785" ry="0.813"/>
			<ellipse fill="#332643" cx="402.994" cy="626.084" rx="1.785" ry="0.813"/>
		</g>
		<g>
			<g>
				<g>
					<path fill="#B93B3F" d="M433.811,613.83c-1.107-1.105-1.107-2.902,0-4.008L451,592.631c1.107-1.106,2.902-1.106,4.01,0
						l1.398,1.399c1.107,1.106,1.107,2.903,0,4.008l-17.189,17.191c-1.107,1.105-2.902,1.105-4.01,0L433.811,613.83z"/>
				</g>
			</g>
		</g>
		<g>
			<path fill="#F6D0BC" d="M432.917,611.934c0-1.582,1.282-2.863,2.862-2.863h1.816c1.583,0,2.863,1.283,2.863,2.863l0.001,4.051
				c-0.001,1.582-1.282,2.863-2.864,2.863h-1.816c-1.58,0-2.863-1.281-2.862-2.863V611.934z"/>
		</g>
		<g>
			<path fill="#F6D0BC" d="M420.604,611.934c0-1.582,1.283-2.863,2.862-2.863h1.816c1.583,0,2.863,1.283,2.863,2.863l0.001,4.051
				c-0.001,1.582-1.282,2.863-2.864,2.863h-1.816c-1.58,0-2.863-1.281-2.862-2.863V611.934z"/>
		</g>
	</g>
	<path fill="#535351" d="M440.816,567.152c-7.334,0-17.111,3.442-17.111,7.688h26.559
		C450.264,570.593,448.15,567.152,440.816,567.152z"/>
</g>
</svg>
