<?xml version="1.0" encoding="utf-8"?>
<!-- Generator: Adobe Illustrator 16.0.0, SVG Export Plug-In . SVG Version: 6.00 Build 0)  -->
<!DOCTYPE svg PUBLIC "-//W3C//DTD SVG 1.1//EN" "http://www.w3.org/Graphics/SVG/1.1/DTD/svg11.dtd">
<svg version="1.1" id="Layer_1" xmlns="http://www.w3.org/2000/svg" xmlns:xlink="http://www.w3.org/1999/xlink" x="0px" y="0px"
	 width="841.89px" height="1190.55px" viewBox="0 0 841.89 1190.55" enable-background="new 0 0 841.89 1190.55"
	 xml:space="preserve">
<g>
	<rect x="412.675" y="573.237" fill="#4064AF" width="17.922" height="18.539"/>
	<g>
		<g>
			<rect x="369.809" y="619.141" fill="#535351" width="13.982" height="15.514"/>
			<rect x="373.896" y="619.141" fill="#687281" width="13.982" height="15.514"/>
		</g>
		<g>
			<rect x="443.369" y="619.141" fill="#535351" width="13.981" height="15.514"/>
			<rect x="447.457" y="619.141" fill="#687281" width="13.98" height="15.514"/>
		</g>
		<path fill="#535351" d="M470.725,620.252c0,0.914-0.605,1.656-1.354,1.656h-86.01c-0.748,0-1.354-0.742-1.354-1.656v-4.314
			c0-0.914,0.606-1.654,1.354-1.654h86.01c0.748,0,1.354,0.74,1.354,1.654V620.252z"/>
		<path fill="#687281" d="M452.627,620.252c0,0.914-0.605,1.656-1.354,1.656h-86.009c-0.748,0-1.354-0.742-1.354-1.656v-4.314
			c0-0.914,0.606-1.654,1.354-1.654h86.009c0.748,0,1.354,0.74,1.354,1.654V620.252z"/>
	</g>
	<g>
		<g>
			<path fill="#687281" d="M474.562,601.668l-2.569-1.08h-92.5c-0.922-0.229-1.748,0.396-1.843,1.396l-0.623,5.475
				c-0.095,1,0.577,1.996,1.499,2.225l4.352,1.082h90.716c0.922,0.229,1.748-0.398,1.844-1.396l0.623-5.477
				C476.155,602.895,475.484,601.896,474.562,601.668z"/>
			<g>
				<path fill="#535351" d="M471.025,609.684c-0.922-0.229-1.594-1.225-1.498-2.225l0.623-5.475c0.095-1,0.92-1.625,1.843-1.396
					l2.569,1.08c0.922,0.229,1.593,1.227,1.498,2.225l-0.623,5.477c-0.096,0.998-0.922,1.625-1.844,1.396L471.025,609.684z"/>
			</g>
		</g>
		<g>
			<path fill="#687281" d="M476.224,590.473l-2.569-1.082h-92.5c-0.922-0.229-1.748,0.396-1.843,1.396l-0.623,5.474
				c-0.095,1,0.577,1.996,1.499,2.225l4.352,1.082h90.717c0.922,0.229,1.747-0.396,1.843-1.396l0.622-5.474
				C477.816,591.698,477.146,590.702,476.224,590.473z"/>
			<g>
				<path fill="#535351" d="M472.688,598.486c-0.922-0.229-1.594-1.225-1.499-2.225l0.623-5.474c0.095-1,0.921-1.625,1.843-1.396
					l2.569,1.082c0.922,0.229,1.593,1.225,1.497,2.225l-0.622,5.474c-0.096,1-0.921,1.625-1.843,1.396L472.688,598.486z"/>
			</g>
		</g>
		<g>
			<path fill="#687281" d="M477.885,579.276l-2.568-1.082h-92.5c-0.922-0.229-1.748,0.396-1.843,1.396l-0.623,5.475
				c-0.095,1,0.576,1.996,1.499,2.227l4.352,1.08h90.717c0.923,0.229,1.747-0.396,1.843-1.396l0.623-5.475
				C479.479,580.5,478.807,579.504,477.885,579.276z"/>
			<g>
				<path fill="#535351" d="M474.349,587.292c-0.923-0.23-1.594-1.227-1.499-2.227l0.623-5.475c0.096-1,0.921-1.625,1.844-1.396
					l2.568,1.082c0.922,0.229,1.594,1.225,1.498,2.225l-0.623,5.475c-0.096,1-0.92,1.625-1.843,1.396L474.349,587.292z"/>
			</g>
		</g>
	</g>
	<path fill="#F09071" d="M372.401,600.865c-0.661,0-1.203-0.535-1.21-1.195l-0.008-0.76c-0.007-0.66,0.523-1.195,1.184-1.195h1.692
		c0.661,0,1.203,0.535,1.21,1.195l0.008,0.76c0.007,0.66-0.522,1.195-1.183,1.195H372.401z"/>
	<path fill="#1B201A" d="M390.994,587.391h-7.422c-3.26,0-5.902,2.645-5.902,5.904v20.236h19.227v-20.236
		C396.896,590.036,394.254,587.391,390.994,587.391z"/>
	<path fill="#754C80" d="M371.807,599.066h-5.306c-2.666,0-4.834,2.168-4.834,4.834v30.754h4V603.9c0-0.459,0.375-0.834,0.834-0.834
		h5.306c0.46,0,0.834,0.375,0.834,0.834h4C376.642,601.234,374.473,599.066,371.807,599.066z"/>
	<path fill="#754C80" d="M394.662,614.643c0,1.566-1.269,2.836-2.834,2.836h-23.624c-1.565,0-2.834-1.27-2.834-2.836v-4.871
		c0-1.566,1.269-2.836,2.834-2.836h23.624c1.565,0,2.834,1.27,2.834,2.836V614.643z"/>
	<circle fill="#687281" cx="380.372" cy="564.813" r="7.812"/>
	<path fill="#B93B3F" d="M431.575,610.787c0-3.295-9.284-33.281-20.737-33.281S390.1,607.492,390.1,610.787
		s9.285,5.967,20.738,5.967S431.575,614.082,431.575,610.787z"/>
	<ellipse fill="#4479BD" cx="411.502" cy="573.196" rx="19.164" ry="18.293"/>
	<ellipse fill="#F4CFC3" cx="411.503" cy="573.196" rx="16.326" ry="15.586"/>
	<ellipse fill="#F4CFC3" cx="380.372" cy="581.719" rx="12.277" ry="15.585"/>
	<g>
		<circle fill="#332643" cx="418.168" cy="570.122" r="2.745"/>
		<circle fill="#332643" cx="404.836" cy="570.122" r="2.745"/>
	</g>
	
		<line fill="none" stroke="#754C54" stroke-width="2" stroke-linecap="round" stroke-linejoin="round" stroke-miterlimit="10" x1="400.88" y1="584.635" x2="422.125" y2="584.635"/>
	<path fill="#E2EBEA" d="M427.416,569.752c-1.645-6.947-8.139-12.141-15.913-12.141c-7.775,0-14.269,5.193-15.913,12.141
		c2.725-0.486,4.909-3.029,5.487-6.32c4.483-0.09,8.36-1.305,10.426-3.082c2.065,1.777,5.942,2.992,10.426,3.082
		C422.505,566.723,424.69,569.268,427.416,569.752z"/>
	<g>
		<g>
			<path fill="#4064AF" d="M369.519,628.369c-4.109,0-7.441,2.854-7.441,6.375h12.662
				C374.739,631.223,373.627,628.369,369.519,628.369z"/>
			<path fill="#E8BFC3" d="M370.419,628.225c-2.5,0-4.526,2.689-4.526,2.689h6.831C372.723,629.43,372.917,628.225,370.419,628.225z
				"/>
			<path fill="#E8BFC3" d="M369.162,609.166c-1.208,0-2.186,2.025-2.212,4.541h-0.006c0,9.424,1.722,17.062,3.847,17.062
				s3.847-7.639,3.847-17.062L369.162,609.166z"/>
		</g>
	</g>
	<g>
		<g>
			<path fill="#4064AF" d="M382.501,628.369c-4.109,0-7.441,2.854-7.441,6.375h12.662
				C387.721,631.223,386.61,628.369,382.501,628.369z"/>
			<path fill="#E8BFC3" d="M383.401,628.225c-2.5,0-4.526,2.689-4.526,2.689h6.831C385.706,629.43,385.899,628.225,383.401,628.225z
				"/>
			<path fill="#E8BFC3" d="M382.145,609.166c-1.208,0-2.186,2.025-2.212,4.541h-0.006c0,9.424,1.722,17.062,3.847,17.062
				s3.847-7.637,3.847-17.062L382.145,609.166z"/>
		</g>
	</g>
	<path fill="#F09071" d="M414.636,573.774c0-0.865-0.702-1.568-1.568-1.568h-3.13c-0.867,0-1.568,0.703-1.568,1.568v1.744
		c0,0.865,0.702,1.568,1.568,1.568h3.13c0.866,0,1.568-0.703,1.568-1.568V573.774z"/>
	<g>
		<path fill="#4479BD" d="M405.563,593.678c-1.611,1.609-2.296,3.792-2.064,5.896c2.102,0.23,4.286-0.453,5.897-2.064
			c1.611-1.611,2.297-3.794,2.064-5.898C409.358,591.379,407.175,592.065,405.563,593.678z"/>
		<path fill="#4479BD" d="M417.443,593.674c-1.609-1.613-3.792-2.301-5.892-2.07c-0.232,2.102,0.453,4.287,2.063,5.898
			c1.609,1.613,3.792,2.301,5.892,2.07C419.738,597.471,419.054,595.286,417.443,593.674z"/>
	</g>
	<path fill="#687281" d="M391.003,573.948c-2.122-4.664-6.083-7.811-10.631-7.811c-4.548,0-8.509,3.146-10.63,7.811
		c0.897,0.271,1.84,0.426,2.818,0.426c3.119,0,5.91-1.479,7.812-3.805c1.903,2.326,4.693,3.805,7.812,3.805
		C389.163,574.374,390.105,574.219,391.003,573.948z"/>
	<path fill="#B93B3F" d="M384.768,590.899c0.005-0.018,0.011-0.033,0.016-0.051c0.052-0.193,0.088-0.395,0.088-0.604
		c0-1.344-1.136-2.434-2.538-2.434c-0.795,0-1.496,0.357-1.962,0.906c-0.465-0.549-1.166-0.906-1.961-0.906
		c-1.402,0-2.539,1.09-2.539,2.434c0,0.209,0.036,0.41,0.088,0.604c0.005,0.018,0.011,0.033,0.017,0.051
		c0.138,0.473,0.419,0.883,0.799,1.193c0.821,0.756,2.119,1.252,3.596,1.252c1.473,0,2.768-0.494,3.589-1.246
		C384.345,591.788,384.628,591.375,384.768,590.899z"/>
	<g>
		<path fill="#4064AF" d="M412.058,620.18c0,1.564-1.269,2.834-2.834,2.834h-18.311c-1.565,0-2.834-1.27-2.834-2.834v-6.979
			c0-1.566,1.269-2.836,2.834-2.836h18.311c1.565,0,2.834,1.27,2.834,2.836V620.18z"/>
		<g>
			<path fill="#653B54" d="M401.833,622.588c0-1.566-1.269-2.834-2.834-2.834h-11.884c-1.565,0-2.834,1.268-2.834,2.834v9.232
				c0,1.564,1.269,2.834,2.834,2.834h11.884c1.565,0,2.834-1.27,2.834-2.834V622.588z"/>
			<path fill="#754C54" d="M389.638,625.373c-5.335,0-9.66,4.156-9.66,9.281h19.32C399.298,629.529,394.973,625.373,389.638,625.373
				z"/>
		</g>
	</g>
	<g>
		<path fill="#4479BD" d="M432.361,620.18c0,1.564-1.27,2.834-2.835,2.834h-18.311c-1.565,0-2.834-1.27-2.834-2.834v-6.979
			c0-1.566,1.269-2.836,2.834-2.836h18.311c1.565,0,2.835,1.27,2.835,2.836V620.18z"/>
		<g>
			<path fill="#653B54" d="M422.136,622.588c0-1.566-1.269-2.834-2.834-2.834h-11.884c-1.565,0-2.834,1.268-2.834,2.834v9.232
				c0,1.564,1.269,2.834,2.834,2.834h11.884c1.565,0,2.834-1.27,2.834-2.834V622.588z"/>
			<path fill="#754C54" d="M409.941,625.373c-5.335,0-9.66,4.156-9.66,9.281h19.32C419.601,629.529,415.276,625.373,409.941,625.373
				z"/>
		</g>
	</g>
	<g>
		<path fill="#754C80" d="M384.068,578.217c1.59-1.596,3.463-2.305,4.183-1.584s0.015,2.598-1.574,4.193
			c-1.59,1.596-3.463,2.305-4.184,1.584C381.773,581.69,382.478,579.813,384.068,578.217z"/>
		<circle fill="#1B201A" cx="384.437" cy="581.747" r="2.218"/>
	</g>
	<g>
		<path fill="#754C80" d="M376.676,578.217c-1.59-1.596-3.462-2.305-4.183-1.584c-0.72,0.721-0.015,2.598,1.575,4.193
			c1.59,1.596,3.462,2.305,4.184,1.584C378.971,581.69,378.267,579.813,376.676,578.217z"/>
		<circle fill="#1B201A" cx="376.308" cy="581.747" r="2.218"/>
	</g>
	<path fill="#F6D0BC" d="M373.692,602.836c0,1.582-1.282,2.863-2.863,2.863h-1.816c-1.582,0-2.863-1.281-2.863-2.863v-4.051
		c0-1.582,1.282-2.863,2.863-2.863h1.816c1.582,0,2.863,1.281,2.863,2.863V602.836z"/>
	<path fill="#ED6A25" d="M468.715,612.334c0-16.619-10.877-30.916-24.295-30.916s-15.043,27.853-15.043,30.914
		c0,3.062,1.625,5.543,15.043,5.543C464.665,617.875,468.715,615.395,468.715,612.334z"/>
	<g>
		<path fill="#F58352" d="M443.006,606.875c0,1.566-1.27,2.836-2.834,2.836h-3.686c-1.564,0-2.834-1.27-2.834-2.836v-18.257
			c0-1.564,1.27-2.834,2.834-2.834h3.686c1.564,0,2.834,1.27,2.834,2.834V606.875z"/>
		<path fill="#F58352" d="M455.188,606.875c0,1.566-1.27,2.836-2.834,2.836h-3.686c-1.564,0-2.834-1.27-2.834-2.836v-18.257
			c0-1.564,1.27-2.834,2.834-2.834h3.686c1.564,0,2.834,1.27,2.834,2.834V606.875z"/>
	</g>
	<g>
		<path fill="#754C80" d="M463.166,582.073c0-2.91-2.199-5.279-5.021-5.604c1.766-2.225,1.645-5.457-0.412-7.514
			c-2.057-2.059-5.289-2.18-7.514-0.412c-0.323-2.822-2.693-5.021-5.604-5.021s-5.279,2.199-5.604,5.023
			c-2.225-1.766-5.457-1.646-7.514,0.41s-2.176,5.287-0.41,7.514c-2.822,0.324-5.023,2.693-5.023,5.604s2.201,5.279,5.024,5.602
			c-1.762,2.227-1.641,5.453,0.415,7.512c2.055,2.054,5.284,2.177,7.509,0.414c0.324,2.822,2.694,5.023,5.603,5.023
			c2.91,0,5.28-2.201,5.604-5.023c2.226,1.767,5.457,1.646,7.515-0.41c2.058-2.057,2.177-5.289,0.411-7.516
			C460.967,587.352,463.166,584.983,463.166,582.073z"/>
		<ellipse fill="#F4CFC3" cx="444.615" cy="588.52" rx="16.326" ry="14.091"/>
		<g>
			<ellipse fill="#535351" cx="451.282" cy="588.555" rx="2.745" ry="1.729"/>
			<ellipse fill="#535351" cx="437.95" cy="588.555" rx="2.745" ry="1.729"/>
		</g>
		
			<line fill="none" stroke="#754C54" stroke-width="2" stroke-linecap="round" stroke-linejoin="round" stroke-miterlimit="10" x1="437.783" y1="596.939" x2="451.448" y2="596.939"/>
		<path fill="#754C80" d="M460.811,584.385c-0.765-7.168-7.744-12.785-16.25-12.785c-8.221,0-15.002,5.25-16.14,12.072
			c0.953,0.748,2.142,1.211,3.452,1.211c2.909,0,5.279-2.199,5.604-5.023c2.066,1.643,4.989,1.635,7.045-0.021
			c0.021,0.023,0.036,0.049,0.058,0.07c2.055,2.055,5.284,2.178,7.509,0.414c0.325,2.824,2.694,5.023,5.604,5.023
			C458.852,585.346,459.917,584.985,460.811,584.385z"/>
		<g>
			
				<line fill="none" stroke="#332643" stroke-width="2" stroke-linecap="round" stroke-linejoin="round" stroke-miterlimit="10" x1="443.439" y1="585.651" x2="445.895" y2="585.651"/>
			<g>
				
					<path fill="none" stroke="#332643" stroke-width="2" stroke-linecap="round" stroke-linejoin="round" stroke-miterlimit="10" d="
					M443.019,590.879c0,1.018-0.825,1.842-1.843,1.842h-7.75c-1.018,0-1.844-0.824-1.844-1.842v-4.398
					c0-1.018,0.826-1.842,1.844-1.842h7.75c1.018,0,1.843,0.824,1.843,1.842V590.879z"/>
				
					<path fill="none" stroke="#332643" stroke-width="2" stroke-linecap="round" stroke-linejoin="round" stroke-miterlimit="10" d="
					M457.649,590.879c0,1.018-0.825,1.842-1.843,1.842h-7.75c-1.018,0-1.844-0.824-1.844-1.842v-4.398
					c0-1.018,0.826-1.842,1.844-1.842h7.75c1.018,0,1.843,0.824,1.843,1.842V590.879z"/>
			</g>
		</g>
	</g>
	<g>
		<g>
			<path fill="#4064AF" d="M428.151,626.465c-4.283,0-7.756,3.707-7.756,8.279h15.511
				C435.906,630.172,432.434,626.465,428.151,626.465z"/>
			<path fill="#E8BFC3" d="M427.199,625.424c-2.604,0-4.717,2.57-4.717,5.74h9.434C431.916,627.994,429.805,625.424,427.199,625.424
				z"/>
			<path fill="#E8BFC3" d="M428.834,611.705c-2.277,0-4.123,1.824-4.172,4.092h-0.014c0,8.488,3.25,15.367,7.258,15.367
				s7.256-6.879,7.256-15.367L428.834,611.705z"/>
		</g>
	</g>
	<g>
		<g>
			<path fill="#4479BD" d="M438.215,626.465c-4.283,0-7.756,3.707-7.756,8.279h15.511
				C445.97,630.172,442.497,626.465,438.215,626.465z"/>
			<path fill="#F4CFC3" d="M437.263,625.424c-2.604,0-4.717,2.57-4.717,5.74h9.433C441.979,627.994,439.867,625.424,437.263,625.424
				z"/>
			<path fill="#F4CFC3" d="M438.897,611.705c-2.278,0-4.124,1.824-4.173,4.092h-0.013c0,8.488,3.249,15.367,7.257,15.367
				s7.256-6.879,7.256-15.367L438.897,611.705z"/>
		</g>
	</g>
	<g>
		<path fill="#B93B3F" d="M465.735,611.537c0,1.566-1.269,2.836-2.835,2.836h-9.123c-1.566,0-2.835-1.27-2.835-2.836v-2.281
			c0-1.564,1.269-2.834,2.835-2.834h9.123c1.566,0,2.835,1.27,2.835,2.834V611.537z"/>
		<path fill="#B93B3F" d="M460.619,614.373c-1.565,0-2.835-1.27-2.835-2.834v-9.125c0-1.564,1.27-2.834,2.835-2.834h2.281
			c1.565,0,2.835,1.27,2.835,2.834v9.125c0,1.564-1.27,2.834-2.835,2.834H460.619z"/>
	</g>
	<g>
		<path fill="#F6D0BC" d="M448.159,606.564c-1.581,0-2.863,1.281-2.863,2.863v1.816c0,1.58,1.282,2.863,2.863,2.863h4.051
			c1.582,0,2.864-1.283,2.864-2.863v-1.816c0-1.582-1.282-2.863-2.864-2.863H448.159z"/>
	</g>
</g>
</svg>
