<?xml version="1.0" encoding="utf-8"?>
<!-- Generator: Adobe Illustrator 16.0.0, SVG Export Plug-In . SVG Version: 6.00 Build 0)  -->
<!DOCTYPE svg PUBLIC "-//W3C//DTD SVG 1.1//EN" "http://www.w3.org/Graphics/SVG/1.1/DTD/svg11.dtd">
<svg version="1.1" id="Layer_1" xmlns="http://www.w3.org/2000/svg" xmlns:xlink="http://www.w3.org/1999/xlink" x="0px" y="0px"
	 width="841.89px" height="1190.55px" viewBox="0 0 841.89 1190.55" enable-background="new 0 0 841.89 1190.55"
	 xml:space="preserve">
<g>
	
		<rect x="412.805" y="585.74" transform="matrix(0.845 0.5347 -0.5347 0.845 383.4782 -132.6224)" fill="#7C98B6" width="15.506" height="19.163"/>
	
		<rect x="413.494" y="591.606" transform="matrix(0.8452 0.5345 -0.5345 0.8452 384.1421 -131.7089)" fill="#E2EBEA" width="11.802" height="11.107"/>
	
		<rect x="418.02" y="588.571" transform="matrix(0.8451 0.5346 -0.5346 0.8451 381.0508 -135.2375)" fill="#E2EBEA" width="11.801" height="2.869"/>
	<path fill="#85AB8A" d="M423.268,599.457c-4.488-3.229-9.081-2.479-9.081-2.479l-0.808,1.275l7.605,4.812
		C420.984,603.066,422.249,601.068,423.268,599.457z"/>
	<path fill="#FFFFFF" d="M416.534,593.266c4.562,3.111,8.458,3.464,8.458,3.464l0.467-0.738l-7.606-4.812
		C417.853,591.181,417.123,592.335,416.534,593.266z"/>
	<path fill="#FFFFFF" d="M420.004,587.781c4.377,2.98,7.711,4.646,7.711,4.646l0.234-0.369l-7.607-4.812
		C420.342,587.246,420.154,587.542,420.004,587.781z"/>
</g>
</svg>
